<?xml version="1.0" encoding="utf-8"?>
<svg xmlns="http://www.w3.org/2000/svg" version="1.1" viewBox="0 0 1000 1085">
	<title>A map of the rail network in the area. The line from London to the north crosses the line between Leeds and Hull at Selby. Between Selby and Hull lies Straddlethorpe, Ferriby and Hessle. There’s also a local line from Straddlethorpe that goes through Goole before meeting the London line at Doncaster.</title>
	<path d="m 250.20015,1082.6827 c -1.60447,-3.4842 -3.15886,-21.4581 -1.92185,-22.2229 0.41251,-0.255 0.55944,-1.0644 0.32651,-1.7986 -0.23293,-0.7342 -0.0587,-2.0168 0.38725,-2.8504 0.85613,-1.6003 1.17701,-22.0501 0.36657,-23.362 -0.2443,-0.3954 0.0343,-2.552 0.61911,-4.7923 0.65297,-2.5015 0.81318,-4.3748 0.41518,-4.8546 -0.8646,-1.0422 -0.86795,-1.3647 -0.35823,-34.47413 0.24374,-15.83244 0.3806,-30.06564 0.30413,-31.62933 -0.0765,-1.56371 -0.0772,-3.32287 -0.001,-3.90926 0.0755,-0.58638 0.24013,-7.6904 0.36574,-15.78665 0.1256,-8.09626 0.42558,-16.41229 0.66662,-18.48006 0.24102,-2.06778 0.13737,-5.02942 -0.23035,-6.58139 -0.4319,-1.82299 -0.40279,-4.84228 0.0822,-8.52926 0.69353,-5.27201 0.82907,-20.61814 0.45337,-51.33129 l -0.14947,-12.21759 -1.81027,-0.93168 c -3.29267,-1.69448 -7.13921,-6.36916 -7.13921,-8.67597 0,-1.16651 -0.39502,-4.03419 -0.87782,-6.37256 -0.69675,-3.37467 -0.69675,-4.31197 0,-4.54432 0.4828,-0.16099 0.87782,-0.86515 0.87782,-1.56469 0,-1.87999 2.69608,-7.64151 3.76843,-8.05319 0.51006,-0.19581 1.67971,-1.90927 2.59922,-3.80774 0.91952,-1.89847 1.95636,-4.0315 2.30408,-4.74007 0.34773,-0.70857 0.45196,-1.85653 0.23165,-2.55096 -0.22033,-0.69442 0.12883,-2.51357 0.77589,-4.04244 1.27803,-3.01986 1.45752,-15.19153 0.40544,-27.49392 -0.29321,-3.42863 -0.2596,-6.72284 0.0747,-7.32046 0.73561,-1.31499 0.0417,-19.44102 -0.83299,-21.75899 -0.38537,-1.02131 -0.25927,-3.91366 0.332,-7.61535 0.52435,-3.28278 0.7628,-6.27711 0.52989,-6.65411 -0.23291,-0.37706 -0.32635,-5.04761 -0.20764,-10.37911 0.11872,-5.3315 0.1926,-11.77265 0.1642,-14.31366 -0.0688,-6.15428 -0.0296,-17.19296 0.10713,-30.2078 0.0837,-7.96519 0.37376,-11.07151 1.14684,-12.28249 0.83135,-1.30227 0.85547,-1.73262 0.12267,-2.1891 -0.69007,-0.42986 -0.98666,-4.96635 -1.21838,-18.63607 -0.16845,-9.93734 -0.43052,-21.42628 -0.58238,-25.53099 -0.15186,-4.10471 -0.003,-8.00315 0.33187,-8.66321 0.33438,-0.66006 0.73572,-11.37494 0.89187,-23.81086 0.15615,-12.4359 0.33238,-26.12905 0.39163,-30.42922 0.0593,-4.30016 0.38029,-8.84247 0.71344,-10.094 0.36492,-1.37088 0.31117,-3.43643 -0.13522,-5.19573 -0.56153,-2.21314 -0.51747,-3.33797 0.18198,-4.64542 0.7196,-1.34511 0.74503,-2.31918 0.11542,-4.42144 -0.49605,-1.65631 -0.60255,-4.0586 -0.27614,-6.22836 0.29226,-1.94264 0.30139,-5.45117 0.0202,-7.79672 -0.282,-2.35311 -0.18299,-6.16742 0.22089,-8.5098 0.65503,-3.79885 0.33978,-13.73869 -0.53417,-16.84281 -0.20282,-0.7204 -1.39529,-1.36577 -3.03595,-1.64306 -2.83132,-0.47854 -7.18564,-3.84144 -7.18564,-5.54959 0,-0.54784 -0.57106,-1.51308 -1.26902,-2.14496 -1.11199,-1.00674 -3.33185,-1.11477 -17.93994,-0.87311 -9.16901,0.15169 -17.94213,0.43839 -19.49581,0.63709 -1.55369,0.19872 -3.23223,0.0231 -3.73009,-0.39024 -0.64352,-0.53428 -1.21329,-0.49575 -1.97094,0.13329 -0.69417,0.57634 -1.37538,0.64987 -1.95386,0.21092 -0.49467,-0.37537 -9.12971,-0.74165 -19.49195,-0.82682 -15.06747,-0.12384 -19.08162,0.0468 -21.11731,0.89769 -2.17168,0.90776 -2.78544,0.91488 -4.5135,0.0524 -1.3966,-0.69699 -3.59983,-0.89917 -7.30241,-0.67011 -2.9163,0.18042 -8.07142,0.31417 -11.4558,0.29722 -3.62033,-0.0181 -6.34598,0.28084 -6.62116,0.72626 -0.25725,0.41641 -0.84528,0.51216 -1.30674,0.21281 -1.14663,-0.74385 -9.7432,-2.149 -10.05542,-1.64362 -0.13808,0.22352 -7.55267,0.29417 -16.476875,0.157 -8.924196,-0.13716 -17.761327,-0.23906 -19.638097,-0.22644 -3.5526,0.0239 -4.63667,-0.89188 -3.76028,-3.17668 0.32832,-0.85588 0.67582,-0.95018 1.37182,-0.3723 0.63504,0.52725 1.16364,0.5423 1.65857,0.0472 1.01615,-1.01654 30.964432,-2.14064 31.907082,-1.19763 0.24512,0.24522 1.13218,0.18719 1.97123,-0.12895 0.83905,-0.31614 3.92346,-0.50683 6.85425,-0.42374 2.93078,0.0831 5.48856,-0.0766 5.68394,-0.35487 0.19539,-0.27826 2.54949,-0.20889 5.23135,0.15417 3.09852,0.41945 6.06651,0.40611 8.14153,-0.0366 1.9381,-0.41352 3.74577,-0.43953 4.44717,-0.064 0.69916,0.37432 2.13921,0.358 3.52631,-0.0399 1.28949,-0.36997 2.68915,-0.41383 3.11034,-0.0974 0.42119,0.31636 2.04469,0.46079 3.60777,0.32097 6.27445,-0.56128 10.00378,-0.61747 13.25844,-0.19978 1.87873,0.24112 3.8098,0.19483 4.29129,-0.10287 0.48149,-0.29769 1.24691,-0.23282 1.70095,0.14414 0.52963,0.43973 1.47075,0.43998 2.62567,7.1e-4 2.29137,-0.87151 14.10015,-0.43533 16.01839,0.59168 0.95791,0.51286 1.60108,0.53475 1.89168,0.0644 0.6275,-1.01571 3.72719,-0.88346 4.11975,0.17577 0.24375,0.65772 0.65351,0.57963 1.57776,-0.30067 0.85075,-0.81032 1.72668,-1.01534 2.74953,-0.64357 2.57799,0.93705 10.94272,0.0504 11.42664,-1.21115 0.23358,-0.60894 0.0142,-1.37494 -0.4875,-1.70232 -0.83777,-0.54658 -22.89936,-0.95691 -35.26461,-0.65584 -3.1079,0.0757 -5.62489,-0.20719 -6.21681,-0.69861 -0.7527,-0.62492 -0.9946,-0.62548 -0.9946,0 0,0.61837 -14.2117,0.79805 -57.01705,0.72115 -31.359382,-0.0561 -57.416712,-0.0682 -57.905172,-0.0256 -0.48846,0.0419 -0.88812,0.67716 -0.88812,1.41117 0,2.47965 1.17189,2.80885 14.33491,4.02684 1.0457,0.0967 2.25866,0.39689 2.69547,0.66695 0.43681,0.27006 1.29047,0.079 1.89701,-0.42462 0.95071,-0.7893 1.06894,-0.68094 0.857,0.78526 -0.42708,2.95496 -3.72668,3.30277 -16.28535,1.7167 -3.21939,-0.40659 -3.27068,-0.37995 -5.3287,2.76799 -1.1429,1.74818 -3.83652,4.5746 -5.98576,6.28094 -3.69328,2.93216 -4.14764,3.0989 -8.27944,3.03841 -2.56083,-0.0375 -5.50384,-0.58693 -7.10493,-1.32645 -3.01171,-1.3911 -8.77239,-6.59303 -8.77239,-7.92156 0,-1.16912 -1.69999,-1.70497 -5.40912,-1.70497 -1.87236,0 -3.30138,0.36225 -3.50465,0.88845 -0.37074,0.95963 -8.6346203,1.09371 -11.4471803,0.18575 -2.01297005,-0.64983 -2.55024005,-2.93774 -1.27100005,-5.41245 0.56520005,-1.09346 1.02766005,-2.48376 1.02766005,-3.08954 0,-0.60585 0.28505,-1.10148 0.63347,-1.10148 0.34843,0 0.83938,-0.82072 1.09104,-1.82376 0.30238,-1.20526 1.31789,-2.18342 2.99444,-2.88418 2.23933,-0.93601 2.89704,-0.93764 5.6071403,-0.0135 3.56774,1.21613 8.85722,0.79656 8.85722,-0.7026 0,-0.53493 0.31972,-0.97255 0.71049,-0.97255 0.39077,0 0.71049,-0.61517 0.71049,-1.36702 0,-0.75186 0.79931,-2.31726 1.77624,-3.47873 0.97692,-1.16147 1.77623,-2.5027 1.77623,-2.98048 0,-0.54339 0.66523,-0.74155 1.77623,-0.5291 0.97693,0.18686 1.77623,0.0639 1.77623,-0.27251 0,-0.33669 0.58616,-0.61219 1.30255,-0.61219 0.71646,0 1.54234,-0.23988 1.83534,-0.53308 1.61993,-1.62106 12.49296,0.14728 12.49296,2.03182 0,0.34848 0.56825,0.63358 1.26275,0.63358 1.38937,0 4.64229,3.38846 6.26321,6.52424 0.71447,1.38224 1.63769,2.04348 2.97207,2.12869 1.0646,0.0682 2.89476,0.19432 4.06707,0.28054 8.45266,0.62171 41.465402,0.14187 42.803492,-0.62214 0.43597,-0.2489 17.07423,-0.63613 22.56185,-0.52504 7.04367,0.1425 14.04675,0.0433 16.67216,-0.23562 1.74504,-0.18559 3.43627,-0.1745 3.7583,0.0249 0.52862,0.3268 28.40956,1.06075 33.567,0.88362 1.17232,-0.0405 2.61107,-0.0455 3.19722,-0.0114 2.41809,0.14086 33.32642,-0.01 46.50706,-0.22717 14.16188,-0.2332 14.18045,-0.23562 14.83226,-1.91702 1.67401,-4.31844 3.12378,-6.45551 5.0233,-7.40482 1.13466,-0.56713 2.44392,-1.03112 2.90948,-1.03112 1.08187,0 2.97832,-2.16543 3.11238,-3.55385 0.65923,-6.82746 0.67355,-22.35676 0.0217,-23.57516 -0.59215,-1.10688 -0.58155,-1.61345 0.0419,-1.99883 0.60313,-0.37295 0.78479,-4.29854 0.65419,-14.13754 -0.12939,-9.74823 0.0581,-13.86018 0.65935,-14.46171 1.15889,-1.15934 1.05432,-3.36167 -0.18216,-3.83632 -1.20765,-0.46356 -2.15679,-4.12837 -1.39047,-5.36874 0.83977,-1.35935 0.46823,-42.3261 -0.456,-50.2792 -0.5214,-4.48667 -0.5908,-7.88254 -0.1863,-9.11643 0.35453,-1.08158 0.57939,-5.48481 0.49968,-9.78498 -0.0797,-4.30017 0.0447,-8.12753 0.2764,-8.50523 0.58576,-0.95486 0.20835,-26.31775 -0.50776,-34.12209 -0.92396,-10.06979 -0.59696,-25.32621 0.5808,-27.09739 0.85721,-1.28912 0.82034,-2.18832 -0.27264,-6.65012 -0.98477,-4.01998 -1.13857,-6.28073 -0.69645,-10.23703 0.31209,-2.7927 0.60806,-6.35707 0.65769,-7.92077 0.0497,-1.56369 0.34092,-3.37694 0.6473,-4.02951 0.3481,-0.74133 0.1027,-1.88012 -0.6542,-3.03577 -0.94091,-1.43654 -1.08543,-2.52026 -0.64751,-4.85514 0.60601,-3.23095 0.79436,-7.58126 1.23805,-28.59359 0.2356,-11.15805 0.10346,-13.71761 -0.76044,-14.73025 -0.92512,-1.08443 -0.90304,-1.44329 0.19157,-3.11453 0.90817,-1.38658 1.1059,-2.57271 0.74359,-4.46052 -0.48024,-2.50234 -0.51555,-11.85709 -0.0605,-16.00345 0.12433,-1.13268 -0.0428,-3.05176 -0.37137,-4.26463 -1.35411,-4.99836 -2.03502,-95.159307 -0.75944,-100.560317 0.62286,-2.63739 0.58563,-5.63976 -0.27043,-21.81046 -0.49141,-9.2823898 -0.49102,-9.2857998 1.34211,-11.3723398 1.00851,-1.1479 1.84377,-1.68737 1.85612,-1.19872 0.016,0.63323 1.62086,0.88847 5.58633,0.88847 5.23,0 5.6218,0.10832 6.52903,1.80415 0.94086,1.75866 1.29969,15.8344298 0.43918,17.2273298 -0.20257,0.32787 -0.10465,2.49693 0.2176,4.8201 0.37752,2.72154 0.32509,4.54751 -0.14738,5.13376 -0.50574,0.62739 -0.47388,2.76497 0.10268,6.88794 0.6322,4.52093 0.63723,6.76789 0.0207,9.21757 -0.54199,2.15329 -0.6569,6.39709 -0.34275,12.65821 0.25993,5.18038 0.37931,10.85817 0.26528,12.61733 -0.28471,4.39243 -0.0955,40.537217 0.32741,62.547897 0.19154,9.96857 0.0575,20.68345 -0.29772,23.81085 -0.61788,5.43882 -1.0606,39.99106 -1.40526,109.67331 -0.0876,17.70958 -0.38361,32.3379 -0.65783,32.50742 -0.41103,0.25417 -0.28461,30.07289 0.28164,66.43078 0.1279,8.21176 -0.76093,11.47448 -2.96848,10.89698 -1.18822,-0.31082 -1.29093,-1.94105 -1.50694,-23.91761 -0.33995,-34.58749 -0.21931,-42.3622 0.6913,-44.55188 0.0813,-0.19546 0.0869,-4.35347 0.0124,-9.24002 -0.0744,-4.88656 -0.11935,-9.36443 -0.0998,-9.95081 0.0196,-0.58639 0.0382,-13.70012 0.0411,-29.14163 0.003,-15.44152 0.0288,-29.19495 0.0571,-30.56319 0.0283,-1.36823 0.0863,-9.95407 0.12858,-19.07966 0.0627,-13.52382 -0.10796,-16.72116 -0.92308,-17.29034 -0.76267,-0.53258 -0.7906,-0.78349 -0.11762,-1.05698 0.64168,-0.26072 0.68333,-0.73075 0.15262,-1.72278 -0.52224,-0.97624 -0.47011,-1.81907 0.1833,-2.96349 0.69857,-1.22345 0.91311,-7.77833 0.91311,-27.89778 0,-22.51831 -0.81222,-63.286747 -1.44438,-72.498707 -0.22294,-3.24858 -0.26131,-23.87112 -0.0923,-49.62323 0.10757,-16.39416 -0.39178,-22.42961 -1.88233,-22.75101 -0.31736,-0.0682 -0.76796,9.3111 -1.0013,20.84337 -0.49379,24.4042 -0.49016,19.59967 -0.0426,56.40193 0.28891,23.752987 0.53318,29.151297 1.3423,29.663837 0.55438,0.3512 0.63943,0.63138 0.19349,0.63749 -0.93599,0.0128 -1.16036,98.61313 -0.22571,99.19099 0.30878,0.19091 0.28015,1.32822 -0.0637,2.52736 -0.34378,1.19914 -0.6869,17.42712 -0.76248,36.06206 -0.15084,37.1843 -0.20169,39.35088 -0.95211,40.56552 -0.28264,0.45752 -0.57037,2.39537 -0.63941,4.30628 -0.0691,1.91098 -0.36331,3.71229 -0.65393,4.00307 -0.29062,0.2907 -0.006,1.1056 0.63157,1.81083 0.77798,0.86003 1.02383,1.96315 0.74658,3.34993 -0.22736,1.13724 -0.24166,2.23951 -0.0318,2.44947 0.20988,0.20996 0.40399,11.20246 0.43134,24.42787 0.0468,22.65442 -0.43649,35.47361 -1.42927,37.90608 -0.8817,2.16039 -0.53256,7.45217 0.54723,8.29393 1.04533,0.81497 1.28299,9.68262 1.40168,52.29936 0.0182,6.52246 0.10558,6.93002 1.48636,6.93002 1.33126,0 1.46242,-0.41118 1.41696,-4.44232 -0.0276,-2.44328 0.0316,-13.6685 0.13155,-24.94489 0.0999,-11.27646 -0.009,-20.81039 -0.24087,-21.18654 -0.8342,-1.35018 0.93986,-7.74627 2.35937,-8.50629 0.76014,-0.40699 1.5164,-0.60558 1.68057,-0.44133 0.6037,0.60395 1.49079,21.30212 1.02272,23.86281 -0.26604,1.45545 -0.25405,4.86602 0.0266,7.57903 0.28071,2.71302 0.23117,6.86235 -0.11007,9.22077 -0.34124,2.35834 -0.62686,8.18432 -0.63471,12.94649 -0.0143,8.63815 -0.01,8.66189 1.93956,10.06346 1.07462,0.77275 2.75316,2.95347 3.73009,4.84611 0.97693,1.89264 1.86144,3.57974 1.96559,3.74911 0.10415,0.16931 15.23821,0.32923 33.63124,0.35538 25.93404,0.037 33.60734,-0.15196 34.17891,-0.84098 0.86227,-1.03944 3.14103,-1.18002 3.72793,-0.23008 0.2326,0.3765 1.26311,0.41275 2.40686,0.0845 2.01438,-0.57792 5.4671,-0.38964 10.05892,0.54851 1.3678,0.27947 5.04469,0.27805 8.17086,0 7.09386,-0.63806 23.37941,-1.27896 35.52464,-1.39802 10.48494,-0.10278 34.52543,0.78626 35.37814,1.30831 0.3102,0.18993 0.94965,0.0497 1.42099,-0.31224 0.47956,-0.36789 3.04737,-0.44678 5.83045,-0.17904 2.73539,0.2632 5.66582,0.22986 6.51205,-0.074 2.23868,-0.80388 19.40115,-0.11308 20.53279,0.82649 0.52329,0.43449 1.52629,0.60913 2.22889,0.38815 3.04104,-0.95656 8.46635,-1.33547 20.21072,-1.41145 l 12.53884,-0.0811 3.19164,-3.28519 c 1.7554,-1.80685 4.26584,-3.82352 5.57874,-4.48155 3.31352,-1.66065 10.61994,-2.24725 14.31378,-1.14904 5.35595,1.59227 5.81067,1.93657 7.80667,5.91142 2.38074,4.74091 3.0791,4.98904 13.30456,4.72713 4.1031,-0.10512 9.37851,-0.1622 11.72314,-0.12695 10.39694,0.15651 15.09065,0.11202 28.77496,-0.27244 8.01081,-0.22503 20.47996,-0.48716 27.70922,-0.58248 7.22927,-0.0953 14.41207,-0.52276 15.96179,-0.94987 1.54971,-0.42718 3.14832,-0.53528 3.55246,-0.24024 1.96134,1.43185 7.73887,-0.11628 8.7543,-2.34576 1.18432,-2.60035 4.99319,-4.38887 9.74282,-4.57495 4.73894,-0.18573 5.53273,0.21757 10.95158,5.56377 3.31606,3.27162 3.70983,3.38399 10.36321,2.95795 2.85788,-0.18302 8.95945,-0.2504 18.82806,-0.20797 6.23955,0.027 27.06282,0.0462 42.98482,0.0405 0.39077,-1.5e-4 2.78868,-7.1e-4 5.3287,0 13.62306,0 12.66219,0.13817 13.13715,-1.93394 0.5976,-2.60704 2.94634,-4.12944 7.8886,-5.11329 3.57172,-0.71098 4.59355,-0.66421 6.86109,0.31409 1.46539,0.63216 2.66435,1.46496 2.66435,1.85063 0,0.38567 0.50736,0.70125 1.12748,0.70125 0.62005,0 1.48586,0.94994 1.92387,2.11092 0.67234,1.78191 1.29658,2.1859 4.00463,2.59218 1.76443,0.2647 4.4918,0.13854 6.06079,-0.28047 1.56898,-0.41892 3.17618,-0.51048 3.5715,-0.20349 0.89863,0.69784 44.66535,0.77283 50.42861,0.0863 2.33099,-0.2777 5.44827,-0.28345 6.92731,-0.0128 1.47896,0.27053 2.68907,0.21502 2.68907,-0.12339 0,-0.85839 4.08107,-0.77403 4.61821,0.0953 0.24149,0.39093 3.10265,0.71077 6.35813,0.71077 h 5.91904 l 2.70364,-4.17713 c 4.54836,-7.02747 12.48748,-9.71909 21.42164,-7.2626 2.90372,0.79842 7.97351,5.06127 8.02893,6.75105 0.0142,0.42867 0.78019,1.70266 1.70255,2.83101 1.3996,1.71224 2.0124,1.96919 3.70451,1.55346 2.46364,-0.60529 1.51023,-0.5969 16.21828,-0.14236 7.36298,0.22751 12.22346,0.10697 12.4808,-0.30969 0.26409,-0.42738 1.29502,-0.3777 2.75977,0.13313 1.85467,0.6468 2.45817,0.62128 2.91828,-0.12346 0.41507,-0.67197 0.84797,-0.72712 1.5223,-0.19419 0.51824,0.40962 1.7913,0.94732 2.82897,1.19488 l 1.88679,0.45007 -0.22075,6.52402 c -0.1956,5.78103 -0.40157,6.66048 -1.80863,7.72226 -1.36841,1.03263 -1.99159,1.07912 -4.50801,0.33633 -1.87151,-0.55242 -4.45088,-0.67952 -7.18301,-0.35397 -2.34463,0.27939 -4.59547,0.24884 -5.00187,-0.0679 -0.4064,-0.31671 -2.96418,-0.41591 -5.68395,-0.22046 -2.71976,0.19546 -5.42461,0.38765 -6.01077,0.42705 -0.58615,0.0394 -3.62351,-0.14969 -6.74968,-0.42024 l -5.68394,-0.49194 -1.59861,2.51575 c -6.16367,9.69986 -6.08239,9.65392 -16.60131,9.3827 -7.46415,-0.19273 -11.28547,-1.09812 -11.28547,-2.67416 0,-0.2422 -1.11902,-1.62736 -2.48672,-3.07811 -1.64664,-1.74659 -2.48673,-3.32387 -2.48673,-4.66867 v -2.03094 l -9.41403,0.31541 c -5.17771,0.17348 -10.69291,0.31115 -12.256,0.30594 -14.07817,-0.047 -18.46148,-0.0101 -28.079,0.23619 -12.05081,0.30859 -17.03733,0.90222 -17.03733,2.02824 0,0.40152 -0.80833,0.20019 -1.79627,-0.44741 -0.98801,-0.64758 -2.06214,-1.0131 -2.38697,-0.81225 -0.32484,0.20085 -3.24966,0.0618 -6.49952,-0.309 -3.66415,-0.41807 -6.21269,-0.42187 -6.70876,-0.01 -0.44001,0.3653 -1.52337,0.47492 -2.40757,0.24362 -1.17338,-0.30697 -2.21873,0.15658 -3.8707,1.71649 -2.60488,2.45965 -4.27489,3.03657 -11.85486,4.09537 -4.03226,0.56324 -9.9469,-1.76679 -9.9469,-3.91852 0,-2.22094 -2.05084,-2.70568 -10.30214,-2.43503 -20.38412,0.66862 -71.39466,0.36628 -72.88569,-0.43202 -1.51458,-0.8109 -4.80383,0.70286 -9.17624,4.22301 -3.16214,2.54578 -3.25309,2.5696 -8.28889,2.1711 -4.60781,-0.36463 -5.36758,-0.6523 -7.99509,-3.02703 -3.13628,-2.83455 -3.9993,-3.06379 -6.77361,-1.79922 -1.38981,0.63348 -2.25551,0.62163 -3.73136,-0.0511 -1.97037,-0.89812 -13.99857,-1.73451 -22.23506,-1.54615 -2.54002,0.058 -5.66416,-0.20379 -6.94255,-0.58193 -1.51417,-0.4479 -3.61919,-0.4384 -6.03919,0.0273 -4.95141,0.95275 -8.98992,0.97109 -11.26498,0.0512 -1.17224,-0.47399 -10.55144,-0.77947 -25.2225,-0.82148 -12.84597,-0.0367 -24.12972,-0.13967 -25.075,-0.22863 -1.37714,-0.1296 -1.83346,0.27186 -2.29621,2.02008 -0.31764,1.20001 -2.26187,3.86524 -4.3205,5.92273 -4.06819,4.06592 -9.55717,6.57114 -13.34639,6.0914 -1.83729,-0.23262 -2.51308,0.19981 -4.8022,3.07285 -1.46521,1.83897 -3.20406,3.98327 -3.8641,4.76512 -3.46303,4.10209 -7.66327,9.94355 -7.66327,10.65765 0,0.44755 -0.71938,1.49139 -1.59861,2.31964 -0.87924,0.82824 -2.15285,2.24527 -2.83024,3.14895 -0.6774,0.90368 -1.87636,2.49313 -2.66435,3.5321 -0.788,1.03898 -1.43272,2.08343 -1.43272,2.32104 0,0.78339 -6.6953,10.36074 -7.24296,10.36074 -0.29479,0 -1.01298,0.92279 -1.59599,2.05066 -1.11122,2.1497 -0.83433,5.62818 1.03526,13.00572 0.79533,3.13845 0.7379,3.46719 -1.00509,5.75326 -1.01673,1.33354 -1.84861,2.89019 -1.84861,3.45923 0,1.35221 -1.41748,2.73905 -2.80645,2.74579 -0.60569,0.003 -2.53636,1.46706 -4.29036,3.25359 l -3.1891,3.24824 -5.49654,-0.20836 c -5.75526,-0.21815 -6.96679,0.34824 -9.44005,4.41328 -0.39077,0.64227 -1.58973,2.48654 -2.66435,4.09836 -1.07462,1.61182 -1.95385,3.35904 -1.95385,3.88269 0,0.52367 -0.71938,1.59954 -1.59861,2.39084 -0.87924,0.79131 -2.8775,2.97776 -4.44058,4.85878 -1.56309,1.88103 -3.24163,3.82721 -3.73009,4.32485 -0.48847,0.49765 -0.88812,1.22421 -0.88812,1.6146 0,0.39039 -1.18406,1.68619 -2.63125,2.87955 -1.90809,1.57343 -2.78128,1.9295 -3.17708,1.29559 -0.30021,-0.48079 -0.36039,0.28093 -0.13375,1.6927 0.38597,2.40413 0.13697,2.84122 -3.92784,6.89502 -2.38697,2.3805 -4.34093,4.58382 -4.34215,4.89625 -10e-4,0.31244 -2.07939,2.96693 -4.61816,5.89886 -2.53879,2.93194 -5.23901,6.61018 -6.0005,8.17388 -0.76148,1.5637 -3.15412,4.76218 -5.31697,7.10772 -2.16284,2.34555 -3.93773,4.81898 -3.9442,5.49651 -0.0113,1.18172 -1.78915,3.34372 -8.36005,10.16628 -1.66077,1.72438 -3.01959,3.62067 -3.01959,4.21396 0,1.19483 -4.59251,7.52795 -6.08516,8.39151 -0.52113,0.30149 -1.81388,2.14061 -2.87279,4.08693 -1.0589,1.94633 -2.18259,3.53877 -2.49707,3.53877 -0.31449,0 -2.18626,2.47882 -4.15949,5.50848 -1.97323,3.02967 -4.46267,6.47736 -5.5321,7.66154 -5.85481,6.48305 -13.33478,16.54815 -17.41571,23.43473 -2.34717,3.96084 -11.50257,15.53242 -14.1085,17.83183 -2.34254,2.067 -4.87911,5.15182 -4.87911,5.93366 0,0.36001 -0.39965,1.07725 -0.88811,1.59384 -0.48847,0.51659 -1.65211,2.37852 -2.58586,4.13768 -0.93377,1.75916 -2.95799,4.34879 -4.49828,5.7547 -2.75902,2.51833 -3.73767,3.8973 -5.75225,8.10535 -0.56146,1.17278 -2.01938,3.07175 -3.23982,4.21993 -1.22044,1.14818 -2.21899,2.67747 -2.21899,3.39848 0,0.72094 -0.47958,1.49497 -1.06573,1.72 -0.58616,0.22503 -1.06574,0.85463 -1.06574,1.39922 0,0.54452 -0.24391,0.99011 -0.54202,0.99011 -0.29811,0 -0.85762,0.57458 -1.24336,1.2769 -2.25738,4.10989 -3.83334,6.40959 -6.20767,9.05871 -1.46539,1.63492 -2.66435,3.18362 -2.66435,3.44149 0,0.88562 -3.90945,6.48174 -6.21681,8.89893 -1.27001,1.33049 -2.31798,2.7698 -2.32884,3.19847 -0.0109,0.42867 -1.00414,1.73897 -2.20731,2.91175 -1.20316,1.17277 -3.17403,3.57162 -4.37969,5.33078 -1.20567,1.75916 -2.77016,3.61641 -3.47663,4.12724 -0.70649,0.51083 -1.28452,1.39041 -1.28452,1.95462 0,0.56421 -0.32146,1.02586 -0.71436,1.02586 -0.39291,0 -2.20939,2.07901 -4.03663,4.62002 -1.82723,2.541 -3.54048,4.62001 -3.80721,4.62001 -0.26672,0 -1.39271,1.35935 -2.5022,3.02078 -1.10948,1.66143 -2.64599,3.54291 -3.41446,4.18104 -1.36298,1.13177 -1.36578,1.22651 -0.11441,3.86461 1.05862,2.23175 1.21454,3.84918 0.89214,9.25517 -0.46237,7.7531 -2.25836,11.69418 -7.47606,16.40518 -3.2177,2.90528 -3.28578,3.05603 -3.37017,7.4631 -0.0474,2.47391 -0.34597,11.53462 -0.66354,20.13495 -0.50106,13.56949 -0.42284,16.16828 0.59162,19.65561 1.45486,5.00127 1.45742,5.89749 0.021,7.33452 -0.8178,0.8181 -1.22258,2.82624 -1.40713,6.98078 -0.14249,3.20778 -0.46051,6.79185 -0.70671,7.96462 -0.69165,3.29457 -1.75346,60.83408 -1.61331,87.4249 0.18129,34.39648 0.39476,42.95218 1.09356,43.83028 0.41513,0.5215 0.92855,3.1873 1.14094,5.9237 0.30543,3.9352 0.15069,5.2383 -0.74012,6.2325 -0.93265,1.0409 -1.15752,3.6549 -1.30796,15.2047 -0.20197,15.5053 -0.52624,16.7093 -4.06571,15.096 l -1.87968,-0.8568 0.13859,-11.5871 c 0.0762,-6.3729 -0.09,-11.8158 -0.36935,-12.0953 -0.27937,-0.2795 -0.004,-1.2785 0.6133,-2.2201 0.82736,-1.2631 0.98658,-2.4889 0.60749,-4.6767 -0.28256,-1.6307 -0.48374,-4.4042 -0.44707,-6.1633 0.11661,-5.595 0.004,-32.2134 -0.15054,-35.5386 -0.0817,-1.7592 0.15001,-3.598 0.51488,-4.0863 0.42081,-0.5631 0.34695,-1.652 -0.202,-2.9778 -0.47596,-1.1496 -0.61932,-2.4885 -0.31858,-2.97526 0.30076,-0.48681 0.63748,-7.14297 0.74829,-14.79137 0.1108,-7.64848 0.35615,-24.40563 0.54523,-37.23818 0.1991,-13.51234 0.63444,-23.68305 1.03442,-24.16624 0.42007,-0.50749 0.4598,-2.08746 0.10141,-4.03284 -0.61758,-3.35228 -0.37787,-37.06887 0.31583,-44.42315 0.44285,-4.69486 -0.34004,-7.0097 -1.85733,-5.49185 -0.56189,0.56208 -0.93177,3.19464 -0.99782,7.10175 -0.53989,31.93589 -1.21321,52.58253 -1.85978,57.02876 -0.89841,6.17795 -1.12488,114.58348 -0.24837,118.88638 0.36688,1.801 0.25944,3.0193 -0.32881,3.7284 -0.6372,0.7681 -0.82245,4.5659 -0.68426,14.0279 0.10423,7.1361 0.14221,13.3746 0.0844,13.8632 -0.0578,0.4887 -1.02785,0.8885 -2.15564,0.8885 -1.62154,0 -2.27306,-0.4833 -3.11427,-2.31 z m 24.12469,-276.43635 c 0.90442,-0.85001 1.61916,-2.20936 1.58831,-3.02078 -0.0308,-0.81141 -0.21735,-1.07554 -0.41445,-0.58688 -0.1971,0.48865 -0.97117,0.88846 -1.72014,0.88846 -0.74898,0 -1.36614,0.23989 -1.37148,0.53308 -0.006,0.2932 -0.20249,1.25274 -0.43812,2.13232 -0.53999,2.01575 0.24911,2.0338 2.35588,0.054 z m -11.555,-3.81805 c 0.2497,-0.99529 0.25441,-2.13267 0.0104,-2.52757 -0.37692,-0.61006 -1.21643,-86.52622 -0.90563,-92.68314 0.15604,-3.09114 0.17337,-7.44775 0.041,-10.30619 -0.0634,-1.36823 0.0294,-4.5667 0.20612,-7.10771 0.17673,-2.54101 0.34591,-8.59873 0.37594,-13.4616 0.0301,-4.86287 0.22437,-9.11638 0.43186,-9.45224 0.2075,-0.33585 0.81382,-0.2482 1.3474,0.19481 0.80108,0.6651 0.86573,0.44125 0.37095,-1.28462 -0.32956,-1.14954 -0.44435,-2.90044 -0.25509,-3.89088 0.19633,-1.02738 -0.16904,-2.58428 -0.85068,-3.62501 -1.33173,-2.03334 -0.93933,-3.30827 1.01828,-3.30827 1.58818,0 2.43453,2.73685 1.2776,4.13142 -0.6635,0.79978 -0.50152,1.27733 0.78744,2.32147 1.41657,1.14753 1.60278,1.88228 1.46541,5.78241 -0.0865,2.4573 0.0808,5.63063 0.37184,7.05183 0.29106,1.4212 0.2607,2.74996 -0.0675,2.9528 -0.32817,0.20285 -0.50232,9.43508 -0.387,20.51611 0.11532,11.081 0.20361,20.62702 0.19619,21.2134 -0.48335,38.20775 -0.68421,81.08789 -0.3857,82.34198 l 0.39736,1.66946 1.74509,-1.88376 c 0.9598,-1.03602 1.74509,-2.19714 1.74509,-2.58017 0,-0.38304 0.48879,-0.88413 1.08619,-1.11343 0.5974,-0.22936 1.70469,-1.73854 2.46065,-3.35384 0.75596,-1.6153 2.18551,-3.69011 3.17678,-4.61078 0.99126,-0.92059 1.8023,-2.07097 1.8023,-2.55636 0,-0.48538 1.11264,-2.02861 2.47254,-3.4294 1.35991,-1.40079 2.99323,-3.84869 3.62962,-5.43982 0.63639,-1.59106 1.41465,-2.89291 1.72947,-2.89291 0.31482,0 1.5994,-1.6792 2.85462,-3.73155 1.25522,-2.05236 2.72139,-3.98736 3.25816,-4.29996 0.53677,-0.31259 0.97595,-0.97653 0.97595,-1.47535 0,-0.49882 0.7993,-1.65816 1.77623,-2.57626 0.97693,-0.9181 1.77623,-2.25329 1.77623,-2.96697 0,-0.71369 0.29818,-1.29766 0.66261,-1.29766 0.36444,0 0.86415,-0.63522 1.11047,-1.41159 0.24632,-0.77638 1.34389,-2.30802 2.43906,-3.4036 1.09516,-1.09559 2.21114,-2.6853 2.47996,-3.53261 0.26883,-0.84731 1.39742,-2.30546 2.50799,-3.24026 2.34626,-1.97502 4.29927,-5.44722 4.29927,-7.6435 0,-1.07057 0.32145,-1.40953 1.06574,-1.1238 0.58752,0.22553 1.06701,0.0206 1.06858,-0.45703 10e-4,-0.47636 1.43698,-2.23652 3.18982,-3.91137 1.75284,-1.67487 3.376,-3.79865 3.60702,-4.71946 0.23101,-0.9208 1.19351,-2.34703 2.13887,-3.16933 0.94537,-0.82229 1.71885,-1.9397 1.71885,-2.48308 0,-0.54331 0.5793,-1.13951 1.28735,-1.32474 0.70804,-0.18522 2.26692,-2.25143 3.46417,-4.59158 2.12416,-4.15198 2.7627,-5.07541 6.79399,-9.82585 1.07462,-1.26631 1.95385,-2.51457 1.95385,-2.77393 0,-0.25936 0.79931,-1.27114 1.77623,-2.24845 0.97693,-0.97732 1.77624,-2.03139 1.77624,-2.34235 0,-0.31096 1.43874,-2.0891 3.19721,-3.95146 1.75847,-1.86237 3.19722,-3.60737 3.19722,-3.87777 0,-0.73372 2.1152,-3.45186 5.50632,-7.07588 1.66078,-1.77483 3.0196,-3.78813 3.0196,-4.474 0,-0.68586 1.27888,-2.27516 2.84197,-3.53179 1.56308,-1.25662 2.84197,-2.71101 2.84197,-3.23196 0,-0.52097 0.48758,-0.9472 1.0835,-0.9472 0.64106,0 1.26169,-0.89131 1.51987,-2.18272 0.24139,-1.20736 1.977,-3.82765 3.8841,-5.86387 1.89625,-2.02463 3.45036,-3.91861 3.45358,-4.20882 0.006,-0.57623 2.09716,-3.15454 5.15692,-6.35944 1.07462,-1.12561 1.95386,-2.29923 1.95386,-2.60806 0,-0.30883 1.70101,-2.5265 3.78003,-4.92815 2.07901,-2.40165 4.69051,-6.16689 5.80332,-8.36719 1.11282,-2.2003 2.60903,-4.36648 3.32491,-4.81373 0.71587,-0.44725 1.3016,-1.10028 1.3016,-1.45119 0,-0.35091 1.19895,-2.00131 2.66435,-3.66759 3.35766,-3.81793 7.42072,-9.36064 8.34829,-11.38849 0.73571,-1.60842 3.98821,-5.738 7.99169,-10.14676 1.26926,-1.39775 2.51131,-3.19502 2.76011,-3.99396 0.24879,-0.79892 0.64996,-1.61251 0.89146,-1.80797 0.82467,-0.66744 4.34283,-6.11643 4.34283,-6.72627 0,-0.54333 4.72849,-6.03851 9.58475,-11.13885 0.98072,-1.03002 1.78313,-2.12265 1.78313,-2.42807 0,-0.57605 0.12194,-0.72329 4.97345,-6.00536 4.79994,-5.22591 4.97345,-5.43145 4.97345,-5.89118 0,-0.24263 0.71938,-1.21269 1.59861,-2.15569 2.86508,-3.07286 4.77658,-5.79289 4.7863,-6.81083 0.005,-0.5487 1.27184,-2.16345 2.81466,-3.58833 3.62995,-3.35247 4.68879,-5.99047 3.23684,-8.06424 -0.75359,-1.07637 -1.06849,-3.36113 -1.06849,-7.75263 0,-5.6305 0.16903,-6.41479 1.76592,-8.19342 0.97126,-1.08179 2.43322,-2.84648 3.24879,-3.92153 0.81557,-1.07504 1.93924,-1.95462 2.49703,-1.95462 0.5578,0 1.01417,-0.26901 1.01417,-0.59781 0,-0.3288 1.60645,-1.47249 3.56989,-2.54154 3.15386,-1.71723 3.91974,-1.86475 6.57206,-1.26591 1.65119,0.37281 3.48175,0.86441 4.06791,1.09245 1.08044,0.42034 3.64337,-2.8546 4.60431,-5.88345 0.2557,-0.80591 0.843,-1.46778 1.30514,-1.47079 0.46212,-0.003 1.54241,-1.23592 2.40063,-2.73979 0.85822,-1.50387 2.20561,-3.50045 2.99419,-4.43685 2.84181,-3.37444 4.73548,-6.00262 5.70784,-7.92178 0.54468,-1.07505 1.39434,-1.95462 1.88813,-1.95462 0.49379,0 1.0956,-0.62343 1.33734,-1.3854 0.24174,-0.76195 2.82106,-4.16626 5.73182,-7.5651 2.91076,-3.39885 5.29229,-6.57442 5.29229,-7.05684 0,-0.48242 0.51378,-1.30369 1.14174,-1.82506 0.8678,-0.72049 1.04012,-1.68968 0.71819,-4.03935 -0.68132,-4.97269 -0.99089,-5.08941 -12.59986,-4.75052 -12.56619,0.36682 -21.77559,0.8953 -23.28872,1.33642 -2.55279,0.74419 -16.41635,1.10769 -16.41635,0.43041 0,-0.81691 -8.88431,-0.52547 -10.97003,0.35986 -0.89175,0.37853 -1.47703,0.28902 -1.65781,-0.25356 -0.35022,-1.05105 -10.53788,-1.157 -11.18083,-0.11627 -0.24545,0.39729 -0.82383,0.48696 -1.2853,0.19923 -0.46145,-0.28771 -2.75735,-0.56918 -5.10197,-0.62549 -2.34463,-0.0563 -4.84409,-0.34841 -5.55435,-0.6491 -0.71026,-0.30071 -3.10818,-0.32767 -5.32869,-0.0599 -2.22053,0.26775 -6.11551,0.4277 -8.65552,0.35543 -6.12107,-0.17415 -60.5671,-0.24525 -64.65485,-0.0844 -1.75847,0.0691 -4.95569,0.0918 -7.10493,0.0503 -2.14924,-0.0415 -8.7653,0.12093 -14.70234,0.36095 -6.88401,0.27831 -10.95315,0.17981 -11.23219,-0.27188 -0.53005,-0.85795 -9.43728,-0.88162 -13.81365,-0.0367 -1.846,0.3564 -3.8726,0.33778 -4.8785,-0.0448 -1.59984,-0.6085 -1.697,-0.51619 -1.38327,1.31401 0.18559,1.08266 0.57672,2.52821 0.86918,3.21232 0.40419,0.94548 0.19351,1.24385 -0.87826,1.24385 -1.9547,0 -3.11774,-1.63502 -2.8638,-4.026 l 0.21407,-2.01559 -6.10021,-0.20367 -6.10021,-0.20366 -2.95285,4.30457 -2.95286,4.30456 0.47051,20.77612 c 0.71676,31.65009 0.67892,45.25889 -0.12671,45.56278 -0.4326,0.16319 -0.36313,0.63637 0.17762,1.20979 1.0619,1.12605 1.15116,4.13742 0.19706,6.6479 -0.41142,1.08251 -0.74428,17.71184 -0.82256,41.09333 -0.0895,26.72667 -0.37729,39.67239 -0.90083,40.51883 -0.96957,1.56758 -2.80278,1.59739 -4.07062,0.0661 -0.8035,-0.97042 -0.94607,-7.63122 -0.81011,-37.8486 0.20893,-46.43615 0.16903,-44.69698 1.10038,-47.95167 0.66865,-2.33667 0.60994,-2.88126 -0.3894,-3.61229 -1.03787,-0.7592 -1.05612,-1.03309 -0.15468,-2.32061 0.68855,-0.98341 0.89634,-2.472 0.63677,-4.56157 -0.34249,-2.757 -0.81054,-7.54126 -1.03358,-10.56488 -0.0433,-0.58639 0.15934,-7.46311 0.45022,-15.28159 0.69399,-18.65398 0.58309,-29.48916 -0.31098,-30.38358 -0.3979,-0.39805 -1.26548,-0.51567 -1.92793,-0.26136 -1.01165,0.38836 -1.11693,1.00087 -0.65761,3.82593 0.30078,1.84996 0.51181,5.44256 0.46896,7.98356 -0.0428,2.54101 -0.16807,16.45437 -0.27827,30.91857 -0.1102,14.4642 -0.41154,26.62151 -0.66964,27.01623 -0.3981,0.6088 -0.96748,61.67955 -0.67688,72.60079 0.0536,2.01458 -0.23214,4.53013 -0.63499,5.5901 -0.40285,1.06 -0.69879,4.68919 -0.65766,8.06489 0.1184,9.71674 0.05,10.34968 -1.21836,11.27752 -1.00139,0.73251 -1.06262,1.17939 -0.37002,2.7001 0.45649,1.00227 0.82997,2.5429 0.82997,3.42363 0,0.88074 0.30304,1.90519 0.67341,2.27657 0.93971,0.94225 1.51809,19.38968 0.62523,19.94171 -0.3868,0.23916 -0.50979,1.20607 -0.27329,2.14871 0.23649,0.94264 0.40348,5.46556 0.37107,10.05095 -0.0324,4.5854 -0.0414,8.97677 -0.0201,9.75861 0.0852,3.12307 0.70817,20.79044 0.82705,23.45547 0.0698,1.56369 0.0545,5.24194 -0.034,8.17388 -0.33658,11.1616 0.4446,68.71157 0.94365,69.51943 0.83839,1.35708 1.6715,0.98584 2.16034,-0.96267 z m 37.03373,-84.85142 c -0.21421,-0.34672 -1.0286,-0.46321 -1.80976,-0.25886 -1.26768,0.33165 -1.43067,-7e-5 -1.51703,-3.08753 -0.0532,-1.90245 -0.23531,-2.73938 -0.40466,-1.8598 -0.52374,2.72026 -1.62947,1.76236 -1.64094,-1.42154 -0.007,-2.01362 -0.21905,-2.69191 -0.63523,-2.03452 -0.51468,0.81306 -0.85985,0.75057 -1.96476,-0.35538 -0.73721,-0.73793 -1.76755,-2.30119 -2.28963,-3.47397 -0.52207,-1.17277 -1.2538,-2.72318 -1.62606,-3.44539 -0.92541,-1.79535 -0.49837,-2.04013 3.66813,-2.10304 3.21595,-0.0483 3.84515,0.20335 5.76771,2.30916 1.55213,1.70002 2.37452,2.14696 2.9293,1.59191 0.55479,-0.55497 1.11964,-0.1327 2.01195,1.50407 0.95781,1.75681 1.6677,2.24433 3.11408,2.13843 1.7669,-0.12936 1.84735,0 1.41454,2.31001 -0.36877,1.96649 -0.23405,2.44718 0.6859,2.44718 1.85692,0 1.499,4.01934 -0.4538,5.09602 -1.9629,1.08222 -6.7179,1.50413 -7.24974,0.64325 z m -16.01891,75.2887 c 0,-0.39093 -0.14099,-0.71077 -0.31331,-0.71077 -0.17232,0 -0.51091,0.31984 -0.75242,0.71077 -0.24152,0.39092 -0.10053,0.71077 0.31331,0.71077 0.41383,0 0.75242,-0.31985 0.75242,-0.71077 z m 5.29836,-6.34783 c 0.22483,-0.36392 0.11734,-0.84184 -0.23886,-1.06211 -0.3562,-0.22019 -0.83097,0.0775 -1.05503,0.66166 -0.44172,1.15159 0.62577,1.48189 1.29389,0.40045 z m 13.88496,-19.28188 c 0,-0.3679 -0.31973,-0.66884 -0.7105,-0.66884 -0.39077,0 -0.71049,0.49868 -0.71049,1.10809 0,0.60949 0.31972,0.91043 0.71049,0.66884 0.39077,-0.24159 0.7105,-0.74027 0.7105,-1.10809 z m 22.71317,-31.14133 c -0.019,-0.97191 -0.18938,-0.93623 -1.06574,0.22283 -1.35773,1.79583 -1.34336,2.95289 0.0226,1.81879 0.58616,-0.48666 1.05557,-1.40541 1.04314,-2.04162 z m 22.04788,-29.23233 c 0,-0.39093 -0.33859,-0.71077 -0.75243,-0.71077 -0.41383,0 -0.55482,0.31984 -0.31331,0.71077 0.24151,0.39093 0.5801,0.71077 0.75242,0.71077 0.17233,0 0.31332,-0.31984 0.31332,-0.71077 z m 17.95967,-24.17436 c 0.673,-0.78632 1.22364,-1.98247 1.22364,-2.65813 0,-0.98067 -0.35829,-0.84192 -1.77624,0.68787 -1.75481,1.89324 -2.29707,3.39993 -1.22364,3.39993 0.30393,0 1.10324,-0.64335 1.77624,-1.42967 z m 7.90537,-9.98101 c 1.13494,-1.73808 2.6515,-3.95976 3.37013,-4.93706 1.90915,-2.59638 3.59768,-5.77286 3.25235,-6.11833 -0.38948,-0.38964 -5.48879,7.28611 -5.48879,8.26201 0,0.40921 -0.47959,0.92812 -1.06574,1.15313 -0.58616,0.22503 -1.06574,0.67695 -1.06574,1.0043 0,0.32735 -1.09905,1.79532 -2.44233,3.26216 -1.34328,1.46685 -2.27382,2.93976 -2.06786,3.27314 0.465,0.75268 2.79122,-1.73884 5.50798,-5.89935 z m 12.45001,-16.04988 c 1.46866,-1.86784 1.95011,-3.81865 0.93968,-3.80753 -0.29308,0.004 -1.22568,1.28262 -2.07245,2.84309 -1.74492,3.21563 -1.08148,3.78049 1.13277,0.96444 z m 7.86699,-12.05341 c 0,-0.90996 -0.33597,-0.76444 -1.42099,0.61547 -0.78154,0.99396 -1.42099,2.21687 -1.42099,2.71759 0,0.53483 0.58618,0.28094 1.42099,-0.61547 0.78154,-0.83922 1.42099,-2.06213 1.42099,-2.71759 z m 14.92035,-18.48996 c 0,-0.54456 0.31972,-0.99012 0.71049,-0.99012 0.39077,0 0.7101,-0.55973 0.70963,-1.24385 -6.8e-4,-0.96582 -0.3977,-0.78223 -1.77624,0.82133 -2.00928,2.33728 -2.28132,3.41523 -0.70962,2.81188 0.58615,-0.22503 1.06574,-0.85468 1.06574,-1.39924 z m 4.6182,-6.67629 c 0.24151,-0.39092 0.10052,-0.71077 -0.31331,-0.71077 -0.41384,0 -0.75243,0.31985 -0.75243,0.71077 0,0.39093 0.14099,0.71077 0.31331,0.71077 0.17233,0 0.51092,-0.31984 0.75243,-0.71077 z m 3.90771,-5.68617 c 0,-0.39093 -0.14099,-0.71078 -0.31331,-0.71078 -0.17233,0 -0.51092,0.31985 -0.75243,0.71078 -0.24151,0.39093 -0.10052,0.71077 0.31331,0.71077 0.41384,0 0.75243,-0.31984 0.75243,-0.71077 z m 17.5995,-23.32219 c 0.42627,-1.27929 -1.04229,-1.01047 -1.53788,0.28151 -0.26553,0.69222 -0.10674,1.01717 0.41245,0.84404 0.46431,-0.15483 0.97076,-0.66133 1.12543,-1.12555 z m 2.71399,-3.50421 c -0.49273,-0.49291 -1.84067,0.50859 -1.84067,1.3676 0,0.47131 0.40766,0.41738 1.08291,-0.14324 0.5956,-0.4945 0.93659,-1.04546 0.75776,-1.22436 z m 3.84327,-4.80294 c 0,-0.58639 -0.12566,-1.06616 -0.27923,-1.06616 -0.15358,0 -0.46326,0.47977 -0.6882,1.06616 -0.22493,0.58639 -0.0993,1.06616 0.27923,1.06616 0.37851,0 0.6882,-0.47977 0.6882,-1.06616 z m 18.47281,-24.97117 c 0,-0.6927 -0.63807,-0.32245 -1.77623,1.0307 -0.97693,1.16147 -1.76613,2.54536 -1.75378,3.07532 0.0308,1.32369 3.53001,-2.74645 3.53001,-4.10602 z m 26.79916,-33.4898 c 1.51231,-2.35695 1.66986,-2.56876 4.76993,-6.41294 1.34693,-1.67022 2.65389,-3.68268 2.90435,-4.47211 0.25046,-0.78944 1.62854,-2.68564 3.06239,-4.21376 1.43386,-1.52813 3.40633,-3.80276 4.38326,-5.05475 0.97692,-1.25198 2.65546,-3.30895 3.73008,-4.57103 1.07462,-1.26209 1.95614,-2.73224 1.95892,-3.26702 0.003,-0.53478 1.26598,-2.25172 2.80711,-3.81542 2.51282,-2.5496 3.74767,-5.35598 2.3389,-5.31545 -0.29308,0.008 -1.81176,1.82571 -3.37484,4.03842 -1.56308,2.2127 -4.55766,5.96401 -6.6546,8.33624 -2.09695,2.37223 -4.10206,4.95283 -4.4558,5.73469 -0.35374,0.78184 -1.51555,2.56518 -2.58181,3.96296 -5.15685,6.7603 -6.55684,8.73177 -6.55684,9.23335 0,0.2995 -1.27888,1.91655 -2.84197,3.59347 -1.56308,1.67691 -2.84197,3.30297 -2.84197,3.61345 0,1.3207 2.19834,0.40927 3.35289,-1.3901 z M 294.79731,468.07137 c 3.12617,-0.0407 8.64137,0.0679 12.256,0.24151 3.61463,0.17355 6.57206,0.0932 6.57206,-0.17849 0,-0.51136 14.74653,-0.50226 15.25802,0.009 0.32979,0.32993 8.09939,0.18002 23.46384,-0.4527 15.33142,-0.63137 69.46511,-1.03487 70.29151,-0.52393 1.19226,0.73715 3.91213,0.80939 4.34094,0.1153 0.48576,-0.78628 7.66907,-0.89528 8.43596,-0.128 0.48802,0.48825 5.05773,0.66166 21.72929,0.8246 5.30213,0.0518 38.09208,-0.42083 44.72968,-0.64474 1.35044,-0.0455 3.21121,0.10695 4.13504,0.3389 1.49794,0.37611 1.65509,0.20744 1.45236,-1.5589 l -0.22733,-1.98067 -9.9469,0.17976 c -5.47079,0.0989 -14.82207,0.25886 -20.7806,0.35538 -5.95854,0.0966 -10.83429,0.36711 -10.83502,0.60111 -7.1e-4,0.23398 -1.67985,0.16517 -3.7314,-0.15289 -6.53565,-1.01335 -10.68635,-1.12893 -16.51896,-0.45973 -9.68717,1.11141 -22.30254,1.0605 -22.74449,-0.0917 -0.31064,-0.80993 -1.76399,-0.88776 -8.00086,-0.42846 -7.01926,0.51701 -16.16636,0.67652 -19.16678,0.33428 -0.68384,-0.078 -2.04266,-0.11386 -3.01959,-0.0797 -0.97693,0.0341 -5.13331,-0.0291 -9.23641,-0.14044 -4.10309,-0.11139 -8.83169,0.085 -10.508,0.43662 -1.9537,0.40969 -3.35656,0.38282 -3.90782,-0.0748 -0.54785,-0.4549 -13.10937,-0.72791 -34.60829,-0.75229 -18.56157,-0.0213 -38.96009,-0.0568 -45.33003,-0.0799 -6.36995,-0.0227 -11.88515,0.14593 -12.25601,0.37522 -0.66626,0.41196 -0.95061,3.37281 -0.37896,3.94609 0.16242,0.16288 3.11984,0.23925 6.57206,0.1697 3.45221,-0.0695 8.83452,-0.15978 11.96069,-0.20051 z m 254.71144,-0.29314 c 1.4e-4,-0.34106 0.39991,-0.29497 0.88838,0.10243 0.69907,0.56874 10.69119,0.65566 17.93994,0.15603 0.39077,-0.0269 2.38903,0.14991 4.44058,0.39298 2.47546,0.29329 3.73009,0.18305 3.73009,-0.32778 0,-1.0162 5.17485,-0.99469 6.19489,0.0257 0.58652,0.58676 1.69706,0.57899 4.23286,-0.0295 1.89075,-0.45377 5.51346,-0.77751 8.05049,-0.71945 2.53703,0.0581 10.68749,0.0691 18.11214,0.0247 7.42465,-0.0445 14.90066,-0.0679 16.61334,-0.0519 1.71268,0.0159 3.30203,-0.15918 3.53189,-0.38912 0.89165,-0.89201 -1.80221,-1.6966 -4.33291,-1.29423 -1.5807,0.25141 -3.05953,0.0918 -3.64366,-0.39312 -0.62981,-0.52292 -1.58879,-0.59905 -2.6682,-0.21174 -0.92677,0.3325 -3.12378,0.52469 -4.88225,0.4271 -23.89919,-1.32673 -74.97558,-1.62219 -76.15671,-0.44061 -0.45059,0.45078 -0.37182,1.20824 0.22508,2.1644 0.74594,1.19491 1.55687,1.44406 4.32103,1.32765 1.87151,-0.0788 3.40287,-0.42236 3.40302,-0.76342 z m 185.08366,-0.0807 c 8.59696,-0.20822 16.11042,-0.41163 16.69658,-0.45202 0.58616,-0.0403 2.10484,0.0806 3.37484,0.26879 2.37639,0.35217 2.8694,-0.32813 1.6428,-2.26722 -0.46786,-0.73963 -1.97396,-0.99217 -5.49545,-0.92137 -2.66797,0.054 -4.85089,0.13476 -4.85089,0.18032 0,0.25737 -17.50192,-0.0163 -23.98993,-0.37515 -4.20669,-0.23271 -8.01287,-0.19788 -8.45813,0.0774 -0.4452,0.27529 -2.91821,0.61517 -5.49553,0.75527 -9.54589,0.51893 -10.39941,0.6232 -11.79091,1.44043 -1.19292,0.70062 -0.62275,0.85493 3.55247,0.9615 2.73539,0.0698 6.62435,0.17087 8.64208,0.22453 2.0178,0.0536 3.82955,0.2575 4.02608,0.45295 0.19659,0.19547 1.74291,0.28289 3.43629,0.19427 1.69339,-0.0886 10.11273,-0.33147 18.7097,-0.5397 z m 64.32518,0.41289 c 3.69826,-0.0202 8.8023,-0.0237 11.34231,-0.008 6.63927,0.0415 37.11242,-0.0912 42.98486,-0.18726 2.73539,-0.0447 7.05164,-0.11426 9.59165,-0.15453 4.27717,-0.0678 6.28715,-0.91208 6.37184,-2.67643 0.0199,-0.41872 -21.00181,-0.78711 -31.23913,-0.54744 -7.16518,0.16774 -11.69329,0.20179 -14.92035,0.11223 -9.63165,-0.26739 -11.98296,-0.17883 -12.38154,0.46635 -0.49209,0.79658 -18.94388,0.56811 -20.26859,-0.25091 -0.44292,-0.27386 -1.26901,-0.11287 -1.83584,0.35773 -0.56676,0.4706 -1.83926,0.70092 -2.82776,0.51189 -1.77126,-0.33874 -3.06273,0.535 -2.14619,1.45195 0.46644,0.46663 7.49385,1.42318 8.22381,1.11939 0.20946,-0.0871 3.40667,-0.17498 7.10493,-0.19515 z M 18.652378,467.4029 c 3.29434,-0.0983 2.55109,-1.50721 -1.40365,-2.66083 -2.61582,-0.76301 -3.80178,-0.77196 -6.30236,-0.0476 -5.4855003,1.58885 -3.9923303,3.35694 2.49575,2.95524 1.56309,-0.0967 3.90771,-0.20777 5.21026,-0.24667 z m 223.397802,-1.19289 c 0.19415,-1.01596 -0.006,-1.96904 -0.45004,-2.13833 -0.44016,-0.16796 -5.20868,-0.22184 -10.59671,-0.1197 -7.64091,0.14486 -9.93645,0.41239 -10.43288,1.21592 -1.10664,1.79129 -0.0952,2.15267 5.69944,2.03634 3.1044,-0.0623 5.85849,0.10091 6.12019,0.36272 0.2617,0.2618 2.46346,0.476 4.89279,0.476 4.18322,0 4.43549,-0.097 4.76721,-1.83295 z m 433.92656,0.10357 c 0,-0.67146 -0.72651,-0.99799 -2.13147,-0.95797 -1.28406,0.0362 -2.13148,0.44147 -2.13148,1.01859 0,0.59059 0.81745,0.95799 2.13148,0.95799 1.37677,0 2.13147,-0.36067 2.13147,-1.01861 z m 6.87381,0.12799 c -2.97282,-0.50867 -4.36396,-0.48297 -4.93793,0.0912 -0.59179,0.59202 0.4819,0.77574 4.13884,0.70817 l 4.93792,-0.0912 z m 232.77491,-0.30696 c 1.29019,-0.7977 -1.36109,-1.62396 -5.24521,-1.63463 -4.28775,-0.0121 -5.0251,0.29462 -4.43177,1.84144 0.29734,0.77523 1.36443,0.91098 4.70595,0.5987 2.37674,-0.22213 4.61373,-0.58461 4.97103,-0.80551 z m 17.26853,-1.45302 c -0.72221,-0.72251 -1.31817,0.36526 -0.72562,1.32445 0.44768,0.72458 0.615,0.72514 0.85571,0.003 0.16448,-0.49386 0.10601,-1.09111 -0.13009,-1.3273 z m 5.25467,1.22906 c 0,-0.39093 -0.31973,-0.71077 -0.7105,-0.71077 -0.39077,0 -0.71049,0.31984 -0.71049,0.71077 0,0.39092 0.31972,0.71078 0.71049,0.71078 0.39077,0 0.7105,-0.31986 0.7105,-0.71078 z m 3.55246,-0.39732 c 0,-0.60949 -0.31972,-0.91043 -0.71049,-0.66884 -0.39077,0.24159 -0.71049,0.74027 -0.71049,1.10811 0,0.36786 0.31972,0.66883 0.71049,0.66883 0.39077,0 0.71049,-0.49866 0.71049,-1.1081 z m -12.78887,-0.31345 c 0,-0.39092 -0.65834,-0.71077 -1.46291,-0.71077 -0.80463,0 -1.26531,0.31985 -1.02382,0.71077 0.2415,0.39092 0.89984,0.71077 1.46291,0.71077 0.56314,0 1.02382,-0.31985 1.02382,-0.71077 z M 217.5164,464.77043 c -0.23609,-0.23619 -0.84889,-0.26142 -1.36178,-0.0561 -0.56678,0.22688 -0.39843,0.39533 0.42926,0.42945 0.74897,0.0306 1.16861,-0.13711 0.93252,-0.3733 z m 66.57277,601.76257 c -0.3796,-0.3798 -2.17479,-0.8142 -3.98933,-0.9654 -4.74096,-0.3951 -7.68456,-2.3559 -9.01446,-6.0049 -1.01146,-2.7751 -1.00662,-3.2029 0.0561,-4.955 1.60389,-2.6444 2.55853,-2.7685 3.12335,-0.4063 1.01917,4.2626 2.75453,4.9167 3.43382,1.2943 0.52754,-2.8131 0.38971,-2.7274 2.87057,-1.7839 1.31868,0.5016 1.81067,1.1655 1.71199,2.31 -0.28992,3.3627 0.0622,3.7728 4.32614,5.0391 2.33399,0.6932 4.41447,1.5368 4.62328,1.8748 0.20882,0.3381 0.0656,1.441 -0.31832,2.4512 -0.58265,1.533 -1.14704,1.8365 -3.41545,1.8365 -1.4946,0 -3.02803,-0.3106 -3.40764,-0.6904 z m 0.40599,-14.0741 c 0,-0.5477 -3.52221,-2.5143 -5.8404,-3.261 -1.54822,-0.4987 -2.42217,-3.8396 -1.42306,-5.4401 0.41792,-0.6695 0.58286,-2.5372 0.36655,-4.1505 -0.46737,-3.4859 0.74508,-5.649 2.29646,-4.097 0.51831,0.5185 1.42941,2.1089 2.02467,3.5341 0.59526,1.4252 1.41832,2.5913 1.82903,2.5913 0.41071,0 0.74675,0.4961 0.74675,1.1024 0,0.6063 1.03909,1.5392 2.3091,2.073 2.47768,1.0415 4.79583,4.2836 4.79583,6.7074 0,1.3136 -0.41958,1.4895 -3.55247,1.4895 -1.95385,0 -3.55246,-0.2471 -3.55246,-0.5491 z m -0.35525,-15.7986 c -0.24151,-0.3909 -0.98863,-0.7108 -1.66026,-0.7108 -2.54829,0 -6.51041,-6.5354 -6.51041,-10.7388 0,-3.7848 2.98493,-7.0305 6.46566,-7.0305 1.44146,0 2.99026,0.4743 3.48125,1.0662 0.48646,0.5864 1.29884,1.0661 1.80528,1.0661 1.54507,0 3.72343,4.3989 4.22382,8.5293 0.44067,3.6374 0.32957,4.0699 -1.59777,6.2192 -2.06243,2.3001 -5.26491,3.1252 -6.20757,1.5993 z m 2.48673,-8.1792 c 0,-1.7899 -2.67963,-3.9039 -4.94846,-3.9039 -1.11931,0 -1.44598,0.462 -1.44598,2.0453 0,1.9329 1.47955,4.0561 2.27323,3.2621 0.20144,-0.2015 0.77395,0.1251 1.27226,0.7257 1.17314,1.4141 2.84895,0.1617 2.84895,-2.1292 z m -1.42099,-11.7042 c 0,-0.9191 -3.81712,-2.8613 -5.62366,-2.8613 -2.09476,0 -2.77805,-1.8836 -2.84404,-7.8401 -0.10696,-9.65465 0.66249,-16.53142 1.95681,-17.48855 0.73284,-0.54189 1.43875,-0.62221 1.85716,-0.21131 0.37123,0.36462 1.70552,0.66293 2.96508,0.66293 3.3894,0 6.6621,3.00557 6.6621,6.11825 0,2.2958 -0.11401,2.41165 -1.95385,1.98462 -1.07462,-0.24941 -2.66199,-0.89521 -3.52747,-1.43512 -2.12336,-1.32453 -2.3341,-1.25736 -2.3341,0.74376 0,1.59894 2.86337,4.67162 4.35337,4.67162 1.16277,0 4.17255,3.1059 4.17255,4.3058 0,2.1145 -1.6268,2.869 -4.13979,1.9201 -1.24006,-0.4683 -2.25465,-1.1011 -2.25465,-1.4063 0,-0.3053 -0.47959,-0.555 -1.06574,-0.555 -0.58616,0 -1.05557,0.5598 -1.04315,1.2439 0.034,1.8714 1.72318,3.7315 3.38865,3.7315 0.81309,0 1.67595,0.3199 1.91746,0.7108 0.24151,0.3909 1.05359,0.7108 1.80462,0.7108 1.46983,0 2.56641,2.7423 1.84676,4.6184 -0.46081,1.2013 -6.13811,1.5484 -6.13811,0.3752 z m -0.71049,-37.32574 c -1.3677,-0.92784 -4.2452,-2.22962 -6.39444,-2.89291 -4.1964,-1.2951 -7.30542,-3.93931 -6.64773,-5.65384 0.22293,-0.5812 1.0156,-1.05671 1.76149,-1.05671 1.94116,0 7.01772,1.66769 7.01772,2.3054 0,0.29574 0.62057,0.5377 1.37905,0.5377 0.75848,0 1.57666,0.31984 1.81817,0.71077 0.24151,0.39092 1.04216,0.71077 1.77924,0.71077 1.08987,0 1.38056,-0.61689 1.55667,-3.30339 0.25263,-3.85373 1.82551,-5.41792 3.79977,-3.77881 1.87243,1.5546 1.0285,11.18989 -1.13349,12.94123 -1.90316,1.54174 -1.89581,1.54252 -4.93645,-0.52021 z m -4.23926,-19.52888 c -2.80504,-3.00401 -3.7403,-8.6997 -2.04113,-12.4304 0.66445,-1.45894 1.32827,-1.8104 3.41901,-1.8104 3.53524,0 8.54532,2.48549 8.54532,4.23925 0,0.74965 0.27773,1.53477 0.61717,1.74458 0.33944,0.2099 0.83082,1.71823 1.09195,3.35187 0.41673,2.6071 0.23814,3.21737 -1.46059,4.99118 -1.55404,1.62268 -2.55296,2.02086 -5.06985,2.02086 -2.55824,0 -3.49617,-0.38737 -5.10188,-2.10694 z m 6.93829,-5.40101 c 0.2752,-2.8072 -2.10547,-4.32519 -5.03539,-3.21085 -2.5752,0.97952 -2.43139,2.6111 0.3825,4.33977 3.04175,1.86869 4.39111,1.5413 4.65289,-1.12892 z m 0.016,-11.1798 c -0.51637,-0.50522 -2.05789,-1.36596 -3.42559,-1.91282 -4.84215,-1.93608 -5.65797,-3.28576 -5.67167,-9.38326 -0.0146,-6.47683 0.79797,-9.1086 2.81211,-9.1086 1.71025,0 1.88941,-1.58396 0.32599,-2.88197 -2.03005,-1.68545 -3.15036,-4.81861 -3.15036,-8.81044 0,-3.23437 -0.21686,-3.94457 -1.20448,-3.94457 -1.79123,0 -5.18995,-3.57802 -5.18995,-5.46377 0,-1.39546 0.36481,-1.64395 2.41381,-1.64395 1.32759,0 4.34702,0.95954 6.70983,2.13232 2.36281,1.17277 4.96344,2.13231 5.77916,2.13231 0.81572,0 1.66716,0.47977 1.89209,1.06616 0.22494,0.58639 0.99613,1.06616 1.71377,1.06616 0.71764,0 1.87139,0.95954 2.5639,2.13231 0.6925,1.17278 1.50988,2.13232 1.8164,2.13232 0.7699,0 0.69995,2.59865 -0.11028,4.0966 -0.36716,0.67879 -0.83358,2.037 -1.03648,3.01829 -0.42685,2.06423 -3.72306,4.25745 -6.3986,4.25745 -2.26603,0 -2.42629,1.10966 -0.24563,1.70081 0.87924,0.23832 2.68952,1.34656 4.02285,2.46275 2.77182,2.32039 2.64061,3.96078 -0.40961,5.1209 -1.56548,0.59541 -2.28136,0.47366 -3.79454,-0.64553 -1.30279,-0.96359 -2.21352,-1.18435 -3.02094,-0.7323 -1.71248,0.95869 -0.25832,4.49868 2.56507,6.24434 2.91098,1.79974 5.53689,5.36348 4.99433,6.77799 -0.51477,1.342 -2.66622,1.4435 -3.95116,0.1865 z m 0.42401,-27.94384 c 1.7122,-0.65725 1.33133,-1.89406 -1.10836,-3.59921 -2.54153,-1.77636 -4.16221,-1.47804 -4.16221,0.76607 0,2.72972 2.30808,3.97045 5.27059,2.83314 z m -3.84959,-14.28672 c -3.00154,-1.83109 -4.38565,-4.33976 -4.77711,-8.65848 -0.32991,-3.63972 -0.17835,-4.28965 1.39689,-5.99003 1.47497,-1.59213 2.36983,-1.90728 5.41555,-1.90728 2.00674,0 3.64862,-0.1563 3.64862,-0.34729 0,-1.2818 -2.76456,-3.20657 -4.60574,-3.20657 -2.30044,0 -6.05166,-2.85297 -6.05166,-4.60253 0,-0.54509 0.30751,-1.80024 0.68335,-2.78914 0.43746,-1.15109 0.43746,-1.95007 0,-2.22052 -0.37584,-0.23235 -0.68335,-1.85085 -0.68335,-3.59665 0,-2.80506 0.22718,-3.26223 1.95386,-3.93206 4.3355,-1.68197 11.73595,0.71873 13.73507,4.45555 0.59964,1.12088 0.49841,1.72667 -0.46681,2.79368 -1.52168,1.68212 -2.43402,1.70379 -5.18681,0.12325 -1.62997,-0.9358 -2.35879,-1.03851 -2.97757,-0.4195 -1.31144,1.31195 1.2511,4.86971 4.59826,6.38401 3.45147,1.56157 4.40865,4.5628 1.88595,5.91341 -1.71083,0.91597 -1.83482,1.68218 -0.48995,3.0276 2.50529,2.50625 3.29341,5.30897 2.56836,9.1337 -0.85662,4.51866 -1.53472,5.4008 -4.86224,6.32544 -3.20343,0.89017 -3.57968,0.85847 -5.78467,-0.48659 z m 4.94513,-6.21549 c 1.33445,-1.60854 0.58426,-3.43203 -1.6588,-4.03213 -3.27752,-0.87688 -5.14471,1.68197 -2.88033,3.94727 1.3974,1.39794 3.41847,1.43576 4.53913,0.0849 z m 23.50381,-52.40412 c -2.35135,-0.87013 -3.71642,-3.713 -3.23784,-6.74295 0.60695,-3.84272 2.63861,-10.34414 3.62771,-11.60882 0.4586,-0.58639 1.06932,-1.86578 1.35715,-2.84309 0.28782,-0.97731 0.88869,-2.2567 1.33525,-2.84308 0.44657,-0.58639 1.41376,-2.18563 2.1493,-3.55386 2.3424,-4.35724 4.71659,-7.10772 6.13532,-7.10772 1.44122,0 8.35674,4.95522 11.24478,8.05731 4.8835,5.24542 1.04279,20.71061 -6.44667,25.95852 -1.69176,1.18542 -13.46382,1.68332 -16.165,0.68369 z m 11.85915,-7.43574 c 2.49591,-0.95357 3.31259,-1.7502 4.46434,-4.35497 1.67628,-3.79097 1.81778,-7.47277 0.34388,-8.94719 -0.58616,-0.58639 -1.06574,-1.40278 -1.06574,-1.81417 0,-0.4114 -0.8284,-0.95599 -1.84088,-1.21024 -2.44799,-0.6146 -4.4615,1.42219 -5.03931,5.09766 -0.24214,1.54031 -0.87135,3.05639 -1.39824,3.36898 -0.61108,0.36257 -0.95798,1.92833 -0.95798,4.32384 0,5.23419 0.39086,5.48574 5.49393,3.53609 z m 25.12305,7.37824 c -7.89228,-1.64551 -10.53911,-5.98548 -8.17224,-13.39968 2.43089,-7.61478 7.47916,-12.00231 13.80988,-12.00231 4.073,0 4.96584,0.59691 6.80585,4.55008 1.90365,4.08992 2.19511,8.85486 0.71492,11.688 -0.54211,1.03765 -1.33456,2.76618 -1.761,3.84122 -0.42644,1.07504 -1.26178,1.95462 -1.85631,1.95462 -0.59453,0 -1.08097,0.31985 -1.08097,0.71078 0,0.39092 -0.4637,0.71077 -1.03044,0.71077 -0.56674,0 -1.33011,0.53571 -1.69638,1.19047 -0.82048,1.46668 -1.74222,1.58822 -5.73331,0.75605 z m 5.7866,-8.02909 c 2.32573,-2.67585 3.56243,-7.30887 2.59152,-9.70843 -0.92902,-2.29608 -2.62136,-2.97686 -5.0778,-2.04255 -1.79728,0.68362 -4.36711,4.70517 -3.69836,5.78767 0.19549,0.31644 0.0305,0.77624 -0.36665,1.02174 -0.39715,0.24557 -0.72208,1.86691 -0.72208,3.60297 v 3.15654 h 2.84667 c 2.16805,0 3.22333,-0.43336 4.4267,-1.81794 z m 56.58018,6.31869 c -2.19621,-2.36794 -3.46166,-4.6621 -3.46166,-6.27569 0,-0.63671 0.85732,-2.90919 1.90515,-5.04996 1.86645,-3.81329 3.97966,-5.49349 7.68103,-6.10709 0.93616,-0.15517 1.54004,-0.95379 1.78322,-2.35827 0.35502,-2.05051 0.50005,-2.12365 4.20922,-2.12365 4.32614,0 5.17774,0.91406 2.9386,3.15405 -2.23811,2.239 -1.74427,3.18298 0.73956,1.41366 1.82055,-1.29688 2.31968,-1.39823 2.8632,-0.58149 1.45762,2.19046 -0.82507,15.69611 -3.05038,18.0477 -1.1031,1.16574 -2.46065,1.46405 -7.54305,1.65766 -6.0264,0.22965 -6.2495,0.18047 -8.06489,-1.77692 z m 11.51762,-4.18183 c 1.04859,-0.64829 0.75143,-4.32583 -0.57427,-7.10693 -1.16079,-2.43518 -1.16079,-2.60804 0,-3.2579 0.67421,-0.37749 1.22584,-1.15017 1.22584,-1.71715 0,-1.88653 -2.86078,-1.06459 -5.7817,1.66107 -2.37439,2.21562 -2.95134,3.28341 -3.26146,6.03581 -0.51633,4.58269 0.54319,5.7748 4.63394,5.21386 1.70834,-0.2342 3.39928,-0.60714 3.75765,-0.82876 z m 50.47174,3.23572 c -2.58615,-2.51073 -2.92764,-3.22022 -2.92764,-6.08222 0,-4.77674 1.37747,-9.41815 3.22706,-10.8736 2.0803,-1.63697 2.52642,-3.87398 0.8416,-4.21999 -2.06332,-0.42376 -7.62113,2.62637 -7.62113,4.18247 0,0.74844 -0.63944,2.5543 -1.42098,4.01301 -0.78154,1.45879 -1.43116,3.13678 -1.44358,3.72899 -0.0124,0.59215 -0.49202,1.69754 -1.06574,2.45636 -0.57373,0.75889 -1.04315,2.529 -1.04315,3.93369 0,2.06842 -0.39441,2.78708 -2.07432,3.77982 -1.89077,1.11733 -2.17369,1.12643 -3.19722,0.10249 -1.38642,-1.387 -1.44768,-3.73894 -0.13622,-5.2305 0.54266,-0.61716 1.31967,-2.5614 1.72667,-4.32056 0.40701,-1.75916 1.31417,-5.21394 2.01591,-7.67726 1.11564,-3.91621 1.14417,-4.56124 0.22717,-5.13526 -0.92344,-0.57807 -0.92141,-0.8837 0.0171,-2.5587 0.58615,-1.04626 1.54532,-2.124 2.13147,-2.39509 0.58616,-0.27102 1.78078,-0.86238 2.65471,-1.31407 2.15451,-1.1135 3.48345,-1.03432 7.64744,0.45574 2.85832,1.02287 3.69456,1.70507 4.27968,3.49167 0.54266,1.65688 0.99344,2.07218 1.77624,1.63648 1.89983,-1.05742 7.79869,-1.66228 7.79869,-0.79962 0,0.43528 0.61624,0.79144 1.36942,0.79144 1.53608,0 4.13588,2.94971 4.74712,5.38602 0.37809,1.50705 -1.48522,6.61636 -2.4674,6.76591 -0.24855,0.0377 -3.16955,0.16681 -6.49111,0.28658 -3.32155,0.11976 -6.31894,0.24877 -6.66087,0.28658 -0.80421,0.089 0.0246,4.25162 1.10605,5.55525 0.49071,0.5915 1.48448,0.83786 2.42605,0.60146 2.35606,-0.59158 3.83926,0.23995 3.83926,2.1525 0,1.27199 -0.63807,1.95803 -2.57349,2.76703 -3.95484,1.65304 -5.51163,1.33725 -8.70872,-1.76662 z m 10.74935,-14.91725 c 2.1487,-0.008 2.66434,-0.27336 2.66434,-1.37207 0,-0.85243 -0.73125,-1.60912 -1.95385,-2.02172 -1.60243,-0.54083 -2.36918,-0.34451 -4.26296,1.09132 -2.67421,2.02747 -3.01958,3.35974 -0.71049,2.74073 0.87923,-0.23576 2.79756,-0.43293 4.26296,-0.43826 z m 10.47977,17.12483 c 0,-0.43279 -0.45804,-0.78682 -1.01786,-0.78682 -0.55983,0 -1.2231,-0.64687 -1.47393,-1.43754 -0.55567,-1.75141 0.2234,-5.67018 1.12726,-5.67018 0.35971,0 0.65403,-0.62079 0.65403,-1.37961 0,-0.75874 0.31973,-1.57727 0.7105,-1.81886 0.39077,-0.24159 0.7165,-0.98015 0.72385,-1.64117 0.023,-2.06643 5.26566,-11.83442 6.47706,-12.06784 0.63388,-0.12211 1.67112,0.29675 2.30496,0.93083 1.06292,1.06338 1.29382,1.04163 2.97261,-0.27941 4.69733,-3.69636 9.29108,-3.43039 10.97453,0.63536 0.67454,1.62916 0.55186,2.56113 -0.72926,5.54033 -0.84712,1.96997 -1.91655,3.72622 -2.3765,3.90277 -0.45996,0.17656 -2.1379,-0.29184 -3.72874,-1.04085 -2.25835,-1.06332 -3.3067,-1.20426 -4.78204,-0.64318 -1.03926,0.39533 -1.88957,1.20639 -1.88957,1.80245 0,0.59612 -0.34256,1.08378 -0.76125,1.08378 -1.51985,0 -2.93933,2.23694 -3.2823,5.17257 -0.39247,3.35932 -2.09062,7.62132 -3.03661,7.62132 -0.34047,0 -1.12478,0.19411 -1.74289,0.43144 -0.61812,0.23725 -1.12385,0.0773 -1.12385,-0.35539 z m -130.19778,-0.84375 c -0.68385,-0.39846 -1.24494,-1.26831 -1.24688,-1.93302 -0.004,-1.58004 1.91076,-7.39607 3.9091,-11.8701 0.87304,-1.95462 1.79526,-4.42938 2.04938,-5.49952 0.60479,-2.54677 3.59616,-4.59855 5.00233,-3.43111 0.55179,0.45816 2.22873,0.73586 3.72652,0.61716 2.35821,-0.18686 2.75358,0 2.9494,1.37655 0.1678,1.18159 -0.29046,1.81212 -1.77623,2.44413 -3.3281,1.41565 -7.32895,6.28081 -7.33008,8.91351 -7.1e-4,2.25855 -1.94225,6.48486 -4.09092,8.90625 -1.26753,1.42844 -1.49905,1.46298 -3.19262,0.47615 z m 31.7208,-0.0405 c -3.58026,-0.80544 -5.88845,-3.14196 -6.43551,-6.51443 -0.56432,-3.47888 0.17708,-5.9783 2.3788,-8.01957 3.09533,-2.86981 6.3643,-1.8566 4.30932,1.33568 -0.55515,0.86238 -1.36969,2.61984 -1.81006,3.90541 -0.69938,2.04162 -0.61488,2.52331 0.66764,3.80632 1.29926,1.29979 1.9916,1.41288 6.01236,0.98208 3.75719,-0.40251 4.61737,-0.29554 4.9677,0.61773 0.44538,1.16111 -0.50578,2.32642 -3.10702,3.80646 -1.76261,1.0029 -2.82767,1.01513 -6.98323,0.0803 z m 44.12432,-0.42916 c -4.6745,-0.35581 -7.46018,-2.83044 -7.46018,-6.62702 0,-1.44273 0.46558,-3.00969 1.03462,-3.48207 1.07243,-0.89039 2.51785,-0.45937 2.51785,0.75078 0,0.38105 1.00532,1.67593 2.23404,2.87749 1.88798,1.8463 2.61701,2.12258 4.70625,1.7834 1.35969,-0.22077 2.57913,-0.50834 2.70987,-0.63913 0.13072,-0.13078 0.33089,-1.65332 0.44483,-3.38334 l 0.20716,-3.14559 -4.25527,-1.09331 c -3.40181,-0.87397 -4.4438,-1.48679 -5.19532,-3.05539 -1.28357,-2.67912 -0.53369,-4.50224 2.74446,-6.67252 3.78628,-2.5066 8.14624,-2.8863 11.19223,-0.9746 1.87467,1.17646 2.30915,1.87267 2.13148,3.41511 -0.16521,1.43434 -0.67398,2.00104 -1.95957,2.18257 -0.95504,0.13483 -2.07529,-0.21842 -2.48945,-0.78505 -1.27799,-1.74843 -3.81711,-2.17716 -5.12794,-0.86579 -0.99662,0.997 -1.02373,1.27747 -0.17545,1.8146 0.55184,0.34949 1.90718,0.64033 3.01185,0.6463 2.26815,0.0121 6.11243,3.37681 6.24398,5.4647 0.29139,4.62464 -2.06888,9.61532 -5.265,11.1326 -1.37046,0.65057 -2.76314,1.12522 -3.09486,1.05479 -0.33171,-0.0704 -2.20172,-0.24984 -4.15558,-0.39853 z m -62.70616,-2.86598 c 0.19776,-1.47499 1.31946,-4.75342 2.49266,-7.2854 1.1732,-2.53199 2.3319,-5.2433 2.57489,-6.02514 0.24299,-0.78185 1.25799,-1.79904 2.25555,-2.26033 1.61935,-0.74894 1.87966,-0.66542 2.42853,0.77879 0.60637,1.59547 -1.25966,8.82743 -2.74671,10.64516 -0.35421,0.43293 -1.00732,2.14653 -1.45136,3.80796 -0.75997,2.84351 -0.95714,3.02078 -3.36023,3.02078 -2.54265,0 -2.55145,-0.0107 -2.19333,-2.68182 z m 29.29854,-11.3668 c -0.39873,-0.28722 -1.11125,-1.40178 -1.58339,-2.47682 -0.91199,-2.07659 -3.44796,-2.66412 -4.96198,-1.14946 -1.16356,1.16403 -3.03183,0.20434 -3.03183,-1.55737 0,-1.38238 2.45759,-4.14352 3.73783,-4.19953 1.38261,-0.0604 6.82459,3.04011 7.21025,4.10812 1.61631,4.4758 1.68062,5.01762 0.64278,5.41608 -1.26861,0.48695 -1.12816,0.49683 -2.01366,-0.14102 z m 110.85135,-273.3169 c -4.52713,-4.75447 -5.51547,-7.17525 -5.37967,-13.17657 0.0649,-2.86906 0.37703,-5.74768 0.69355,-6.39694 0.31653,-0.64926 1.10074,-2.18937 1.74269,-3.42245 0.64195,-1.23309 1.16719,-2.86272 1.16719,-3.62139 0,-3.72057 12.05447,-8.49405 16.34134,-6.47107 0.58616,0.27662 1.63251,0.67896 2.32522,0.89408 0.69271,0.21514 1.44107,0.95814 1.66303,1.65113 0.22196,0.69298 0.71867,1.92422 1.10382,2.73608 0.89433,1.88522 0.49684,6.14751 -0.60708,6.50976 -0.92616,0.3039 -2.78258,-1.35765 -4.57198,-4.09206 -0.97501,-1.48991 -1.6764,-1.7506 -4.54924,-1.69077 -2.96099,0.0616 -3.65,0.38065 -5.37344,2.4877 -2.34528,2.86731 -3.5417,6.95558 -3.25722,11.13016 0.23836,3.49775 0.72139,4.09478 3.77323,4.66379 2.65023,0.49412 3.88997,-0.64089 5.29504,-4.84771 2.05888,-6.16432 5.31157,-8.56276 7.09402,-5.23093 0.63652,1.18982 0.54382,2.54537 -0.42529,6.21926 -0.68157,2.58381 -1.51616,5.00169 -1.85466,5.37307 -0.3385,0.37138 -0.61545,1.25096 -0.61545,1.95462 0,0.70366 -0.28734,1.27939 -0.63852,1.27939 -0.35119,0 -2.27113,1.59924 -4.26655,3.55386 -2.24672,2.20079 -4.23529,3.54012 -5.22304,3.51776 -0.91683,-0.0207 -2.80342,-1.30516 -4.43699,-3.02077 z m 87.74587,-0.6194 c -1.3677,-0.87019 -3.38652,-2.49664 -4.48626,-3.61431 -1.86051,-1.89085 -1.98544,-2.37742 -1.79687,-6.99817 0.14989,-3.67285 0.53182,-5.26401 1.46666,-6.11037 0.6952,-0.6294 1.264,-1.53734 1.264,-2.01764 0,-1.52806 5.50691,-5.91647 8.01515,-6.3872 3.36041,-0.63067 7.94301,0.74835 9.28239,2.7933 2.2998,3.51131 2.35655,7.66886 0.13502,9.89126 -0.79848,0.79879 -2.27534,0.95504 -6.39746,0.67685 -3.69515,-0.24939 -5.68899,-0.088 -6.42098,0.51973 -1.58499,1.31595 -1.28527,2.62944 0.71458,3.13157 0.97693,0.2453 1.77623,0.71278 1.77623,1.03888 0,0.32609 1.57688,0.44131 3.50418,0.25605 l 3.50419,-0.33684 0.49505,2.63988 c 0.63723,3.39811 -0.95678,5.08103 -5.37194,5.67157 -2.57076,0.34384 -3.68446,0.11762 -5.68394,-1.15456 z m 5.50981,-18.19045 c 0.4226,-1.26828 -1.78845,-1.90304 -3.03213,-0.87046 -0.58119,0.48253 -1.0567,1.13884 -1.0567,1.45847 0,0.92468 3.76522,0.38321 4.08883,-0.58801 z m 1.36997,-1.72201 c -0.22681,-0.56701 -0.39516,-0.39859 -0.42925,0.42942 -0.0308,0.74927 0.13707,1.16907 0.37316,0.93289 0.23609,-0.23618 0.26133,-0.84923 0.0561,-1.36231 z m -40.56793,20.21256 c -0.2925,-0.29319 -1.70391,-0.86298 -3.13648,-1.26618 -2.50282,-0.70446 -2.63514,-0.90354 -3.3842,-5.09191 -0.88154,-4.92918 0.0203,-11.78601 1.84221,-14.00639 4.05097,-4.937 5.61319,-6.00063 9.53319,-6.4906 7.09706,-0.88706 7.62173,-0.48528 10.00668,7.66293 1.12855,3.85569 2.48541,6.00849 2.48541,3.94336 0,-0.51675 0.67867,-1.25529 1.50815,-1.64118 1.66642,-0.77526 3.2045,-4.39856 4.31583,-10.16692 0.59099,-3.06758 1.07084,-3.90948 2.54855,-4.47153 1.36877,-0.52061 2.07864,-0.43414 2.86094,0.34846 0.91364,0.91399 0.85573,1.63238 -0.47497,5.89309 -3.07699,9.85199 -5.00881,16.99794 -5.21648,19.29618 -0.15104,1.67164 -0.77322,2.69896 -2.13116,3.51893 -1.79517,1.08399 -2.01104,1.07368 -3.37484,-0.16103 -0.80135,-0.7255 -1.4619,-1.98916 -1.46788,-2.80816 -0.006,-0.81898 -0.31661,-1.96884 -0.69027,-2.55523 -0.90385,-1.4184 -3.11648,-0.10572 -3.435,2.03789 -0.4468,3.00684 -9.9452,7.80717 -11.78968,5.95829 z m 6.3344,-8.70709 c 5.67693,-3.50991 2.40214,-15.63734 -3.49654,-12.94867 -1.93823,0.88347 -4.6872,6.38381 -4.65176,9.30761 0.0543,4.47881 3.96612,6.2268 8.1483,3.64106 z m -32.6829,7.89671 c -4.14005,-1.26292 -6.14324,-4.56619 -6.59439,-10.87418 -0.2162,-3.02291 -0.0759,-4.84088 0.37353,-4.84088 0.39587,0 1.13255,-0.99694 1.63707,-2.21543 1.17485,-2.83744 3.9441,-5.3989 6.88751,-6.3707 1.27296,-0.42028 2.31448,-1.05919 2.31448,-1.41979 0,-1.05871 6.27984,-0.75145 8.54014,0.41786 2.85398,1.47643 3.53824,3.07817 3.53824,8.28241 0,6.06796 -2.92309,13.88835 -5.58857,14.95154 -1.02939,0.4106 -2.51105,1.02692 -3.29259,1.36957 -1.94711,0.85371 -6.09349,1.22488 -7.81542,0.6996 z m 8.089,-8.635 c 3.589,-3.5904 3.96984,-9.89031 0.71659,-11.85388 -2.53018,-1.52716 -5.01533,-0.75821 -7.32038,2.26507 -2.19672,2.88117 -2.85697,8.60055 -1.2206,10.57325 1.62043,1.95347 5.35767,1.48326 7.82439,-0.98444 z m 378.67139,-89.16189 c -0.9203,-0.97056 -2.0097,-1.77017 -2.421,-1.77692 -0.71433,-0.0114 -2.59977,-4.72323 -3.4368,-8.58818 -0.2172,-1.00297 -1.04307,-2.57115 -1.83527,-3.48492 -0.79213,-0.91377 -1.44031,-2.18818 -1.44031,-2.832 0,-0.64388 -0.30303,-1.4745 -0.67334,-1.84587 -0.37031,-0.37138 -0.89273,-2.82155 -1.16094,-5.4448 -0.48058,-4.70011 -0.45948,-4.78235 1.44969,-5.65255 1.74973,-0.79756 2.06881,-0.71425 3.29455,0.86024 0.74645,0.95884 1.55079,2.46305 1.78739,3.34262 0.53273,1.98071 1.45495,2.0606 2.05233,0.17769 0.24803,-0.78184 0.70246,-1.42153 1.00989,-1.42153 0.30736,0 1.42078,-0.79913 2.47422,-1.7758 1.78917,-1.6588 1.88473,-2.04716 1.44984,-5.89237 -0.37998,-3.35989 -0.24804,-4.29711 0.71752,-5.09879 1.56024,-1.29538 4.89452,-0.17463 5.24998,1.7647 0.14181,0.77376 0.66885,1.88661 1.17117,2.47299 0.50239,0.58639 1.1478,2.1675 1.43427,3.51356 0.28655,1.34613 0.96159,2.88822 1.50007,3.42698 0.53855,0.5387 0.97913,2.21719 0.97913,3.72986 0,1.51273 0.32427,2.9509 0.72065,3.19591 1.36479,0.84382 3.54231,5.98328 3.54231,8.36066 0,2.15257 -2.05617,5.49313 -3.38103,5.49313 -1.05266,0 -4.41493,-4.7036 -4.81217,-6.73201 -0.61713,-3.1512 -1.84536,-6.19672 -3.23736,-8.0271 l -1.22418,-1.60975 -2.37617,1.9537 c -1.30688,1.07461 -2.61106,2.2788 -2.89817,2.67598 -0.85152,1.17818 -0.61642,3.74641 0.43965,4.80297 1.45239,1.45289 3.7259,6.15827 4.66965,9.66436 0.69493,2.58195 0.64719,3.35137 -0.29749,4.79373 -1.42958,2.18257 -2.64587,2.17069 -4.74808,-0.0462 z m -117.27307,-4.94775 c -1.11419,-0.98143 -2.84659,-4.09319 -4.12476,-7.40901 -1.2121,-3.14431 -2.98535,-7.18739 -3.94061,-8.98465 -2.20558,-4.14969 -2.30789,-8.17991 -0.2405,-9.4716 1.30773,-0.81696 1.71079,-0.73323 3.19722,0.66372 0.9355,0.87923 1.70092,2.02257 1.70092,2.5408 0,1.43994 0.58658,1.17838 4.26295,-1.90082 1.86697,-1.5637 3.7497,-2.84309 4.18395,-2.84309 0.95199,0 0.95313,-0.20491 0.0235,-4.24139 -0.99661,-4.32674 -0.43155,-6.24249 1.84138,-6.24249 1.94178,0 4.60869,2.74478 4.60869,4.74327 0,1.13424 2.04416,5.61353 3.36447,7.37233 0.3534,0.47081 1.07945,2.2953 1.61338,4.05446 0.53401,1.75916 1.55073,4.04748 2.25944,5.08514 1.68216,2.46283 1.63591,5.04172 -0.11901,6.6305 -1.19178,1.07895 -1.58347,1.12842 -2.55393,0.32277 -1.36415,-1.13262 -4.56435,-7.56212 -4.56435,-9.17024 0,-1.50321 -1.9923,-4.28972 -3.06713,-4.28972 -0.47035,0 -1.79939,0.87958 -2.95345,1.95463 -1.15412,1.07504 -2.74946,2.28178 -3.54521,2.68159 -2.31607,1.16374 -2.21696,4.5284 0.23304,7.91189 1.4315,1.97679 2.25937,4.15986 2.59415,6.84081 0.43859,3.51179 0.33521,4.02134 -0.95632,4.71278 -1.81332,0.97084 -1.54781,1.03773 -3.8177,-0.96168 z m -524.04093,-0.79102 c -1.84169,-1.29047 -2.0967,-4.22895 -0.42277,-4.87148 0.63597,-0.24415 2.63423,-0.24913 4.44058,-0.0114 2.69988,0.35581 3.58592,0.17015 4.97954,-1.04327 3.81482,-3.32158 4.98064,-9.71241 2.13542,-11.70606 -0.8239,-0.57729 -1.31755,-1.34179 -1.097,-1.69881 0.22056,-0.35695 -0.0645,-0.64908 -0.63346,-0.64908 -0.56897,0 -1.03449,0.25133 -1.03449,0.55846 0,1.14413 -7.22166,7.7339 -8.47544,7.7339 -1.57939,0 -5.73745,-4.0976 -5.72673,-5.64338 0.0161,-2.32436 2.19145,-8.17409 3.48959,-9.38396 0.74572,-0.695 1.83104,-1.94233 2.41181,-2.7718 1.35611,-1.93693 6.19665,-2.71622 7.45439,-1.20014 1.10691,1.33433 0.44302,3.11616 -1.33424,3.58108 -0.75452,0.19738 -1.37184,0.92344 -1.37184,1.61331 0,1.72497 -2.04737,3.84179 -3.26398,3.37474 -0.72622,-0.27883 -0.99898,0.21949 -0.99898,1.82484 0,1.21463 0.31972,2.20836 0.71049,2.20836 0.39077,0 0.71049,-0.24172 0.71049,-0.53727 0,-0.90445 6.82384,-3.72806 8.9819,-3.71648 2.78775,0.0149 3.39017,0.53691 5.18094,4.48895 2.30408,5.08486 1.54989,10.14896 -2.06671,13.87704 -4.70073,4.84568 -10.49018,6.48017 -14.06951,3.97214 z m 264.85576,-0.0922 c -2.26586,-0.41253 -3.55247,-2.08697 -3.55247,-4.62329 0,-1.52261 0.33726,-1.99648 1.42099,-1.99648 0.84857,0 1.42098,-0.47387 1.42098,-1.17633 0,-1.09459 0.0903,-1.09459 1.29931,0 1.52746,1.38287 4.78208,1.52581 7.33197,0.32198 1.98696,-0.93808 4.15759,-4.20286 4.15759,-6.25337 0,-1.83763 -2.30317,-5.67629 -3.40897,-5.68169 -0.50723,0 -2.67156,1.11498 -4.80962,2.48322 -4.4841,2.86959 -6.04695,3.05092 -8.88276,1.0309 -1.88552,-1.34314 -2.01377,-1.71758 -1.64357,-4.79771 0.64185,-5.34052 1.58254,-7.62899 4.27677,-10.4042 2.32854,-2.39857 2.80158,-2.58515 6.05924,-2.38918 2.97325,0.17875 3.71942,0.52006 4.70595,2.15249 1.11041,1.83742 1.09842,1.99599 -0.22665,2.99818 -0.76949,0.58197 -2.05864,1.06828 -2.86477,1.08073 -1.56493,0.0241 -5.28399,3.44418 -5.28399,4.85918 0,1.22019 0.75981,1.05103 2.46111,-0.54786 1.51277,-1.42175 3.57604,-1.80841 8.40783,-1.57564 3.07009,0.14792 6.18288,2.87785 6.18288,5.42241 0,0.84205 0.29691,1.83486 0.6598,2.20623 0.85808,0.87817 -0.31079,7.14425 -1.73963,9.32576 -1.64569,2.51265 -8.09415,7.34063 -9.81898,7.3515 -0.84415,0.007 -2.17425,0.1283 -2.9558,0.27316 -0.78154,0.14493 -2.22029,0.11792 -3.19721,-0.0597 z M 71.109918,444.9759 c -1.43626,-1.08883 -4.0231,-5.55674 -4.02999,-6.96044 0,-0.49008 -0.42885,-1.70472 -0.94765,-2.69916 -0.51873,-0.99451 -1.15441,-2.86448 -1.41253,-4.1556 -0.25813,-1.29105 -1.4303,-3.77185 -2.60481,-5.51288 -2.54677,-3.77505 -2.64752,-4.97093 -0.5706,-6.77295 2.57198,-2.23153 4.27923,-1.42545 5.5331,2.61259 0.60698,1.95461 1.4963,4.25247 1.97624,5.10639 0.47994,0.85385 0.87966,2.13324 0.88826,2.84308 0.0291,2.41727 2.70783,7.33212 3.9961,7.33212 1.48116,0 5.22468,-3.42152 5.22468,-4.77532 0,-0.52548 0.55951,-1.16745 1.24336,-1.42645 0.68385,-0.25907 1.66582,-0.88875 2.18221,-1.3993 1.61947,-1.60108 2.88401,-1.03737 3.359398,1.49774 0.619358,3.30274 0.01606,4.67126 -3.160388,7.16948 -1.49119,1.17278 -3.10344,3.0119 -3.58274,4.08694 -0.47929,1.07504 -1.18723,1.95462 -1.57317,1.95462 -0.38587,0 -1.18127,0.47978 -1.76742,1.06616 -1.31754,1.31805 -3.04326,1.33007 -4.75405,0.0334 z m 624.314722,-1.4585 c -1.5974,-1.25067 -2.33845,-2.54869 -2.68197,-4.69785 -0.45578,-2.85154 -1.9432,-7.00231 -4.6827,-13.06746 -1.67063,-3.69872 -0.95692,-11.01696 1.07443,-11.01696 0.57873,0 1.0522,-0.29278 1.0522,-0.65051 0,-1.20973 4.22083,-4.64567 6.80738,-5.54153 2.9906,-1.03574 5.271,-0.21692 5.271,1.89279 0,0.73529 -1.91833,3.07352 -4.26296,5.19617 -4.06359,3.67881 -5.1078,5.6045 -3.55843,6.56248 0.3875,0.2396 2.12366,-0.54118 3.85812,-1.735 3.61072,-2.48521 6.50044,-2.82944 7.12873,-0.84915 0.63973,2.01638 -0.0568,3.10806 -3.46607,5.43228 -3.96682,2.70427 -4.85089,6.21108 -2.51784,9.98756 1.90398,3.08183 1.70362,7.8914 -0.38616,9.27179 -1.2472,0.82386 -1.70845,0.72428 -3.63573,-0.78461 z m 260.86631,-11.08662 c -1.38127,-1.21329 -2.51145,-2.74223 -2.51145,-3.39777 0,-0.65548 -1.11903,-3.84613 -2.48672,-7.0903 -2.94528,-6.98625 -3.1585,-9.51845 -0.88812,-10.54608 0.87923,-0.39789 2.16622,-0.5222 2.86002,-0.27614 1.41317,0.50124 3.35679,3.82538 3.35679,5.74119 0,0.68923 0.47958,1.65141 1.06574,2.13807 0.58616,0.48667 1.06574,1.20797 1.06574,1.60287 0,0.7596 2.73277,3.37253 3.52717,3.37253 0.25734,0 1.18667,-0.6699 2.06512,-1.4887 1.38404,-1.28992 1.55967,-2.04454 1.31548,-5.6515 -0.15503,-2.28961 -0.6204,-4.57821 -1.0342,-5.08599 -1.15128,-1.41245 -2.32885,-6.25386 -1.52116,-6.25386 0.40143,0 0.48775,-1.05401 0.20846,-2.54357 -0.46381,-2.47299 -0.42033,-2.53711 1.56642,-2.31001 2.35031,0.26867 2.6041,0.71048 8.80073,15.32381 2.2912,5.40328 1.61567,7.94962 -3.43743,12.95679 -6.36985,6.31194 -9.7837,7.17041 -13.95259,3.50866 z M 580.2023,431.65149 c -0.46892,-0.46911 -0.85259,-1.27996 -0.85259,-1.80195 0,-0.52192 -0.4964,-1.70691 -1.1031,-2.6332 -0.60671,-0.92634 -1.18437,-2.43432 -1.2837,-3.35114 -0.17799,-1.64302 -0.51223,-2.46063 -4.45846,-10.90701 -1.09586,-2.34554 -1.90665,-5.06424 -1.80174,-6.04156 0.21682,-2.01987 3.95788,-5.68617 5.80214,-5.68617 0.67405,0 2.70891,-0.20342 4.52193,-0.45197 l 3.29638,-0.45206 v 2.60669 c 0,1.65283 -0.38713,2.75523 -1.05802,3.01274 -2.23528,0.85812 -2.85363,7.64542 -1.09213,11.98773 3.66413,9.03243 4.10645,10.9267 3.13987,13.44653 -0.5095,1.32829 -3.87541,1.50705 -5.11058,0.27137 z m -262.31397,-1.99016 c 0,-0.39092 -0.2398,-0.6591 -0.53287,-0.59598 -0.73801,0.15892 -3.8631,-1.29737 -5.15108,-2.40049 -1.39133,-1.19161 -2.55352,-3.74108 -3.42008,-7.50241 -0.58099,-2.52189 -0.46925,-3.48456 0.66002,-5.68617 3.15579,-6.15259 3.57311,-6.53392 7.16721,-6.54877 3.72524,-0.0156 5.83917,1.15678 7.09848,3.93625 1.27455,2.81309 0.91307,3.55941 -4.20769,8.68777 -3.79374,3.79936 -3.92054,5.1344 -0.48763,5.1344 2.01826,0 3.00464,-0.51673 4.74894,-2.4877 2.69468,-3.04488 4.78209,-3.30687 4.78209,-0.60018 0,2.69518 -3.2011,6.64174 -5.38716,6.64174 -0.9693,0 -1.9464,0.47976 -2.17133,1.06615 -0.45254,1.17975 -3.0989,1.48324 -3.0989,0.35539 z m -1.24337,-13.05517 c 2.3167,-1.99322 2.51489,-3.72942 0.49878,-4.36954 -2.06503,-0.65569 -3.51837,0.85271 -3.51837,3.65166 0,2.84671 0.4273,2.94828 3.01959,0.71788 z m 396.52673,11.82447 c -2.05233,-1.14165 -3.27928,-2.46816 -4.03845,-4.36627 -1.49345,-3.73404 -2.28942,-11.13367 -1.26567,-11.76662 0.43553,-0.2693 0.79185,-1.11043 0.79185,-1.86918 0,-0.75882 0.31972,-1.37961 0.71049,-1.37961 0.39077,0 0.71049,-0.40429 0.71049,-0.89848 0,-0.86892 4.83832,-3.36615 6.52176,-3.36615 2.087,0 6.22967,2.69795 7.37015,4.79991 1.55094,2.85844 0.68407,5.31494 -2.51926,7.13843 -1.16997,0.66599 -2.12928,1.45082 -2.13176,1.74401 0,0.2932 -0.36889,0.53308 -0.8143,0.53308 -0.9711,0 -2.68836,2.13147 -2.72005,3.37617 -0.0135,0.5205 0.87007,0.88846 2.13283,0.88846 1.71023,0 2.45852,-0.51382 3.62266,-2.48769 1.73765,-2.9463 4.69835,-3.58216 6.87459,-1.47649 0.76356,0.73877 0.66388,1.34983 -0.55802,3.42165 -0.81821,1.38722 -2.03578,2.72162 -2.70577,2.96527 -0.67,0.24372 -2.01752,0.91298 -2.99445,1.48736 -0.97693,0.57437 -2.63202,1.04903 -3.67801,1.05486 -1.04591,0.007 -2.00508,0.42234 -2.13148,0.9257 -0.16817,0.67012 -1.01955,0.47594 -3.1776,-0.72441 z m 2.45056,-14.54844 c 0.46892,-0.4691 0.85259,-1.45209 0.85259,-2.1844 0,-2.16722 -2.44935,-1.18366 -2.71153,1.08876 -0.23943,2.07495 0.46502,2.49011 1.85894,1.09564 z m 128.3861,12.22528 c -0.2415,-0.39092 -1.30297,-0.71077 -2.35887,-0.71077 -3.25307,0 -7.07111,-6.10595 -7.34629,-11.74842 -0.11915,-2.44378 2.06278,-9.57473 2.92965,-9.57473 0.31382,0 0.72669,-0.59741 0.91753,-1.32751 0.36214,-1.38508 3.36987,-2.30638 7.2612,-2.22407 1.59143,0.0334 2.85618,0.87297 5.11917,3.39735 1.65311,1.84402 3.01988,3.55349 3.03743,3.799 0.0178,0.24542 -0.46224,1.62916 -1.06609,3.07493 -0.80371,1.92435 -1.89844,2.99293 -4.08534,3.98794 -4.6636,2.12172 -6.72428,3.95679 -5.65175,5.03311 0.48846,0.49021 2.01041,0.89131 3.38208,0.89131 1.95741,0 2.91935,-0.5097 4.47099,-2.36908 1.55655,-1.8652 2.31067,-2.26324 3.54522,-1.87117 3.32561,1.05585 0.64314,6.45181 -4.38196,8.81484 -3.59567,1.69086 -5.10582,1.90721 -5.77297,0.82727 z m -1.06574,-14.9262 c 0,-0.39093 0.47958,-0.71077 1.06574,-0.71077 1.18638,0 1.45608,-1.80707 0.36995,-2.47861 -0.38274,-0.23662 -1.34191,-0.0843 -2.13151,0.3384 -1.66533,0.8916 -1.94263,3.56174 -0.36996,3.56174 0.58616,0 1.06578,-0.31984 1.06578,-0.71076 z M 89.109614,423.6841 c -3.654076,-1.31323 -6.297666,-5.47828 -6.807656,-10.72591 -0.37592,-3.86772 -0.20335,-4.64943 1.85479,-8.39925 2.392328,-4.35888 4.033545,-5.46079 8.133182,-5.46079 1.768281,0 2.835953,0.5453 4.167609,2.12847 3.646401,4.33521 3.382621,6.72455 -1.288536,11.67166 -1.769582,1.87416 -3.217417,3.68257 -3.217417,4.0187 0,0.3362 0.659884,0.96451 1.4664,1.39631 1.584456,0.84831 2.397651,0.45532 5.489659,-2.65303 0.895051,-0.89976 2.413725,-1.63591 3.374845,-1.63591 4.40531,0 0.0367,8.1684 -5.285851,9.88343 -2.999246,0.96636 -4.710702,0.91782 -7.887025,-0.22368 z m 2.552666,-12.87705 c 1.514117,-1.38458 1.974801,-2.52026 1.794471,-4.4235 -0.104514,-1.10311 -4.082173,-1.18158 -4.754178,-0.0938 -0.839405,1.35878 -1.632862,5.72483 -1.230837,6.77293 0.410878,1.07114 0.755759,0.88549 4.190544,-2.25555 z m 500.32861,10.56135 c -3.94176,-2.70896 -4.22758,-4.08956 -3.88116,-18.74781 0.12184,-5.15572 0.22237,-5.4492 2.61065,-7.61997 3.52665,-3.20551 7.38411,-3.20159 10.44709,0.0107 1.21149,1.2705 2.71783,3.85481 3.34743,5.74297 0.6296,1.88809 1.77929,4.74682 2.55488,6.35273 1.97132,4.08175 1.77638,5.87247 -1.06008,9.738 -1.91745,2.61315 -3.36249,3.70802 -6.45766,4.89296 -2.19309,0.83955 -4.19878,1.50726 -4.45708,1.4838 -0.25831,-0.0235 -1.65514,-0.85748 -3.10407,-1.85327 z m 5.12114,-5.21173 c 0,-0.39093 0.5614,-0.71077 1.24755,-0.71077 0.71267,0 1.66693,-0.94781 2.22571,-2.21072 0.84615,-1.91233 0.82918,-2.52324 -0.1257,-4.5264 -1.30051,-2.7283 -4.48162,-3.81621 -5.13518,-1.75625 -0.21887,0.68988 -0.86536,1.43377 -1.43664,1.65305 -1.47429,0.56598 -1.28617,3.07344 0.44024,5.86798 1.43308,2.31968 2.78402,3.13643 2.78402,1.68311 z m 383.21852,0.99096 c -1.73446,-0.7218 -2.33148,-1.49945 -2.71295,-3.53339 -0.26899,-1.43441 -0.76399,-3.12832 -1.10005,-3.76432 -1.66313,-3.14765 -3.55481,-7.75857 -3.55545,-8.66615 -3.6e-4,-0.56073 -1.11398,-3.25839 -2.47472,-5.99487 -2.66477,-5.35886 -3.10173,-8.20933 -1.46639,-9.56713 1.09658,-0.91042 3.94182,-0.38324 3.94182,0.7304 0,0.36455 0.54353,0.66286 1.20784,0.66286 0.93941,0 1.01835,0.18956 0.35524,0.85292 -1.13046,1.13092 -1.0803,1.99016 0.1161,1.99016 0.95369,0 4.14771,6.4293 4.96926,10.00277 0.23126,1.00588 1.22787,3.01914 2.21474,4.47388 0.98681,1.45473 1.79421,2.79071 1.79421,2.96883 0,0.17811 0.63945,0.96351 1.42099,1.74536 0.93238,0.93275 1.42098,2.36922 1.42098,4.17764 0,3.98792 -2.35386,5.49326 -6.13162,3.92104 z m -248.227,-1.59455 c -1.17118,-1.17156 -2.12935,-2.86824 -2.12935,-3.77036 0,-1.49739 -2.10817,-7.71329 -3.63594,-10.72028 -0.34488,-0.67886 -0.62701,-2.34981 -0.62701,-3.71336 0,-2.01731 0.38423,-2.67783 2.06291,-3.54625 1.13459,-0.58696 2.73675,-2.15805 3.5605,-3.49131 1.69246,-2.73953 3.50415,-3.44426 7.29527,-2.8379 2.60793,0.41722 2.61717,0.40962 2.84197,-2.325 0.18039,-2.195 0.62381,-2.93364 2.21816,-3.69445 1.096,-0.52299 2.49923,-2.01347 3.11821,-3.31206 1.43391,-3.00812 3.82913,-4.1875 6.25695,-3.08091 0.97693,0.44531 1.77623,1.35885 1.77623,2.03011 0,0.67118 0.47959,1.61857 1.06574,2.10523 1.28017,1.06289 1.39435,3.6516 0.21315,4.83325 -0.46892,0.46911 -1.68387,0.85292 -2.69987,0.85292 -1.01601,0 -2.23095,0.38382 -2.69987,0.85294 -1.15434,1.15478 -1.03384,5.49404 0.21314,7.67633 1.37445,2.40525 1.35001,8.51774 -0.0419,10.50591 -2.03733,2.9099 -4.03432,0.61738 -5.59157,-6.41898 -0.23795,-1.07504 -0.87192,-1.95462 -1.40884,-1.95462 -1.08158,0 -1.80508,-1.44102 -1.90277,-3.78969 -0.0476,-1.14242 -0.23354,-0.95521 -0.71909,0.72378 -0.36029,1.24563 -1.2823,2.46396 -2.04892,2.70739 -1.70014,0.53983 -4.00327,3.65672 -4.6722,6.32289 -0.35276,1.40619 -0.10366,2.51045 0.87213,3.86589 0.75134,1.04362 1.81403,3.29094 2.36161,4.99409 0.86459,2.68928 0.85728,3.34319 -0.0554,4.97043 -1.47378,2.62673 -3.14734,2.69041 -5.62277,0.21401 z M 332.4636,414.20205 c -0.99951,-1.46597 -2.15859,-3.94479 -2.57575,-5.50848 -0.41715,-1.5637 -2.19175,-5.76386 -3.94355,-9.33364 -3.44712,-7.02455 -3.95001,-11.03523 -1.4433,-11.51052 1.47561,-0.27983 4.75521,2.93435 4.75521,4.66024 0,1.30541 1.27646,5.60152 2.2187,7.4673 0.3428,0.67886 0.62327,1.81431 0.62327,2.52324 0,0.70899 0.35676,1.64593 0.79279,2.08213 1.92191,1.92271 5.75439,10.15096 5.29084,11.35941 -0.74782,1.94958 -3.84537,1.00717 -5.71821,-1.73968 z m 527.17559,-1.37563 c -2.65433,-1.42091 -3.17263,-2.18819 -3.18635,-4.71711 l -0.0107,-2.00573 3.77556,0.47189 c 3.41612,0.42703 3.99098,0.29056 6.03919,-1.43356 4.04497,-3.40495 2.41354,-7.84301 -2.13582,-5.81006 -7.93507,3.5459 -12.18545,1.15074 -10.59117,-5.9682 0.4977,-2.22266 1.53637,-3.92666 3.5276,-5.78753 3.51459,-3.28455 5.88849,-3.96163 8.31454,-2.37142 2.769,1.81502 2.04906,3.96219 -2.0026,5.97268 -1.85616,0.92102 -3.37484,2.12044 -3.37484,2.6654 0,1.25493 0.2955,1.24192 2.94677,-0.12965 1.79741,-0.92983 2.72773,-0.98342 5.47101,-0.31523 5.28308,1.28679 6.00345,2.14006 5.93418,7.02904 -0.0794,5.59831 -2.4738,9.13242 -7.95752,11.74521 -4.53558,2.16096 -4.02722,2.11163 -6.74968,0.65427 z m 131.37724,-3.88778 c -1.33501,-1.49838 -4.55426,-10.35253 -4.55426,-12.52593 0,-0.47763 -0.28093,-0.86842 -0.62431,-0.86842 -0.34338,0 -1.01693,-1.0395 -1.49686,-2.31 -0.47987,-1.27051 -1.79755,-4.15383 -2.92816,-6.40732 -1.44862,-2.88752 -2.0556,-5.14883 -2.0556,-7.65843 0,-3.19208 0.19376,-3.63474 1.87009,-4.2723 2.37696,-0.90411 3.53684,-0.49911 6.83345,2.38577 2.26349,1.98078 2.66435,2.76839 2.66435,5.23447 0,1.71333 0.43674,3.26558 1.06574,3.78778 0.58616,0.48666 1.06574,1.30362 1.06574,1.81552 0,0.5119 0.98695,1.63378 2.19322,2.49311 1.92956,1.37449 2.13922,1.85028 1.74405,3.95764 -0.24704,1.31742 -0.17422,2.3953 0.16192,2.3953 2.03698,0 4.1772,11.2749 2.35415,12.40204 -0.35838,0.22162 -2.03692,0.59066 -3.73009,0.82017 -2.63025,0.35652 -3.2947,0.17456 -4.56343,-1.2494 z m -647.32844,-0.0675 c -1.23855,-1.66079 -3.28813,-6.9426 -2.86018,-7.37078 0.23434,-0.23441 -0.306,-1.59049 -1.20074,-3.01352 -0.89474,-1.42297 -2.01521,-3.771 -2.48993,-5.21771 -0.47472,-1.44678 -1.59348,-3.7071 -2.48613,-5.02302 -2.48163,-3.65834 -2.77457,-5.7333 -1.08459,-7.68266 1.58482,-1.82804 3.08426,-1.44081 4.52347,1.16815 0.41689,0.75576 0.84184,1.51124 0.94434,1.67899 0.10249,0.16767 1.20072,-0.44537 2.4405,-1.36234 3.13359,-2.31769 5.52614,-2.1154 9.0028,0.76124 4.47485,3.70255 6.80373,7.41129 6.6754,10.63065 -0.15485,3.88451 -2.80705,9.57993 -5.60591,12.03827 -1.31835,1.15799 -2.39701,2.40084 -2.39701,2.76191 0,1.5357 -4.40758,2.04475 -5.46202,0.63082 z m 7.15955,-11.29793 c 2.0373,-2.90983 -1.03557,-10.37911 -3.89627,-9.47082 -0.95539,0.30335 -1.35372,0.087 -1.35372,-0.73493 0,-1.07448 -0.0894,-1.0754 -1.15266,-0.0114 -1.47603,1.47656 -1.04399,7.0542 0.75972,9.80808 1.54328,2.35628 4.14754,2.5452 5.64293,0.4094 z m 14.64964,8.64341 c -0.41507,-0.77581 -0.68162,-3.26088 -0.59235,-5.52235 0.0893,-2.26138 -0.0932,-4.52526 -0.40548,-5.03076 -0.31229,-0.50551 -0.55841,-3.31412 -0.54693,-6.24143 0.0193,-4.90596 -0.10673,-5.37087 -1.60992,-5.94262 -0.89695,-0.34117 -1.8178,-1.10781 -2.04636,-1.70365 -0.22856,-0.59584 -1.79084,-1.45125 -3.47174,-1.90088 -4.05594,-1.08493 -4.83242,-1.8284 -4.83242,-4.62692 0,-3.08752 1.70721,-3.62096 6.33102,-1.97807 1.94949,0.69264 3.7796,1.02422 4.0669,0.73678 0.28731,-0.28736 0.004,-2.14347 -0.62905,-4.12453 -1.32698,-4.1512 -1.03657,-5.45539 1.42305,-6.39091 1.4318,-0.54459 2.01238,-0.38098 3.10032,0.87397 0.73623,0.84923 1.33861,1.95199 1.33861,2.45067 0,0.4986 0.5002,1.40704 1.11156,2.01859 0.77206,0.77239 1.24094,3.12149 1.53518,7.69162 0.28754,4.46585 0.74853,6.81885 1.43503,7.32457 0.80786,0.59505 0.93972,2.31149 0.65525,8.52925 -0.19588,4.28134 -0.72889,9.46343 -1.18447,11.51579 -0.76509,3.44667 -0.98465,3.73154 -2.87593,3.73154 -1.31518,0 -2.31755,-0.50457 -2.80227,-1.41066 z M 104.89981,403.4127 c -3.11726,-3.11844 -4.42231,-6.45864 -4.42231,-11.31869 0,-5.43299 0.88589,-7.35954 4.25524,-9.25396 3.3608,-1.88966 6.64663,-1.84282 10.30986,0.14692 4.44056,2.412 4.2418,4.36207 -1.02141,10.02181 -2.36901,2.54754 -4.30728,4.80772 -4.30728,5.02274 0,0.215 0.82023,0.70287 1.82275,1.0842 2.05107,0.78015 4.31826,-0.096 5.85533,-2.2628 0.87733,-1.23675 3.68339,-1.78901 4.57219,-0.89985 0.67937,0.67965 -0.79029,4.81378 -1.94008,5.45752 -0.59058,0.33065 -1.07378,1.00077 -1.07378,1.48921 0,1.29681 -4.17446,2.59518 -8.34408,2.59518 -3.06108,0 -3.94879,-0.32391 -5.70643,-2.08228 z m 4.69513,-13.02845 c 2.15244,-2.6855 2.24935,-3.00088 1.06574,-3.46721 -1.98725,-0.78299 -2.20479,-0.72848 -3.76106,0.94269 -1.41674,1.52127 -1.91846,4.13442 -0.97501,5.07825 0.79803,0.79834 1.21774,0.50636 3.67033,-2.55373 z m 502.16275,13.46109 c -1.62693,-0.84461 -3.43971,-2.79966 -5.04067,-5.43612 -2.09808,-3.45521 -2.50006,-4.77895 -2.50006,-8.23287 0,-2.83846 0.36628,-4.52057 1.18029,-5.42042 0.64915,-0.71752 1.52839,-1.99328 1.95385,-2.83491 0.42547,-0.84162 1.9987,-2.16373 3.4961,-2.93804 l 2.72251,-1.4079 -0.48529,-4.18296 c -0.51844,-4.4687 0.0814,-5.95527 2.81044,-6.9652 1.03958,-0.38475 1.76699,-0.0925 2.68901,1.08008 0.69516,0.88406 1.26394,1.92008 1.26394,2.30219 0,1.06694 2.13372,8.06022 3.18942,10.45339 0.51734,1.17277 1.67541,4.0514 2.57346,6.39694 0.89806,2.34555 1.90022,4.63303 2.22702,5.0833 0.72697,1.00162 -2.73594,7.61912 -5.60136,10.70401 -2.5825,2.78032 -6.74654,3.33608 -10.47866,1.39851 z m 7.57939,-8.17146 c 2.50906,-2.1827 -0.25899,-9.42433 -4.0465,-10.58623 -1.72755,-0.52994 -2.45611,-0.42198 -3.43582,0.50927 -2.33637,2.2208 -1.13663,9.3743 1.93154,11.51692 0.983,0.68646 4.00869,-0.0984 5.55078,-1.43996 z m 257.22271,1.056 c -2.18057,-1.08457 -3.36681,-3.87591 -2.22967,-5.24663 0.66162,-0.79749 1.71457,-0.94768 4.26836,-0.60878 2.64907,0.35155 4.01457,0.13113 6.24758,-1.00851 2.93917,-1.50001 3.49328,-2.64159 2.00501,-4.13044 -1.13629,-1.13674 -3.10983,-1.06069 -6.92041,0.26668 -5.88978,2.05158 -8.99058,-0.43684 -8.1782,-6.56305 0.54061,-4.07691 1.90284,-5.9751 5.5206,-7.69247 2.81405,-1.33589 6.8537,-1.15301 8.71775,0.39463 1.56443,1.29893 1.23682,4.67786 -0.57671,5.94865 -1.53936,1.0786 -1.50603,1.10646 1.32436,1.10646 2.56047,0 3.12467,0.31935 4.77629,2.70356 2.33546,3.37141 2.36643,5.92436 0.11858,9.7616 -2.86578,4.89196 -10.36119,7.41221 -15.07354,5.0683 z m -114.93164,-7.78174 c -0.58381,-0.89138 -2.05353,-5.44309 -3.26613,-10.11499 l -2.20459,-8.49429 1.55221,-1.25735 c 0.85373,-0.69158 1.80799,-1.25744 2.12061,-1.25744 1.17033,0 6.95622,13.93802 7.61386,18.34154 0.58892,3.94357 -3.70878,5.99977 -5.81596,2.78253 z m -634.66184,-0.29952 c -1.94351,-0.37622 -5.24578,-4.5237 -6.83003,-8.57809 -2.68967,-6.88347 -0.41512,-12.82871 6.45864,-16.88168 1.27375,-0.751 2.2166,-1.53463 2.09522,-1.74132 -0.12139,-0.20669 -0.96483,-1.95412 -1.87431,-3.88316 -1.91385,-4.05936 -1.40413,-5.73266 1.74629,-5.73266 1.63616,0 2.29579,0.5657 3.65265,3.13259 0.91074,1.72291 1.6559,3.52286 1.6559,3.99987 0,0.47707 0.44614,1.23773 0.99141,1.69049 0.54528,0.4527 1.19313,1.89876 1.43966,3.2134 0.24653,1.31465 1.04436,3.14837 1.77295,4.075 2.06015,2.62012 5.03238,8.206 5.03238,9.45767 0,1.33355 -7.51571,8.71577 -10.69257,10.50265 -2.22794,1.25309 -2.57756,1.30092 -5.44819,0.74524 z m 6.91051,-7.79276 c 2.30217,-2.05207 2.56785,-3.34994 1.31499,-6.42375 -2.73835,-6.71813 -2.63356,-6.59105 -5.07398,-6.15264 -3.45056,0.6198 -4.77308,2.59552 -4.77308,7.13046 0,6.92753 4.00322,9.48276 8.53207,5.44593 z m 500.26713,6.35622 c -2.21996,-0.42035 -7.12606,-5.17527 -7.59591,-7.36189 -0.73801,-3.43445 -0.48098,-11.30987 0.4437,-13.59486 0.52095,-1.28728 2.01833,-3.27289 3.32752,-4.41247 2.35323,-2.04838 2.37569,-2.12528 1.97155,-6.75233 -0.48868,-5.5949 0.54701,-7.62842 3.50677,-6.88531 0.9969,0.25033 1.81255,0.80238 1.81255,1.22679 0,0.42447 0.7993,2.36374 1.77623,4.30948 0.97693,1.9458 1.77623,4.0143 1.77623,4.5967 0,0.5824 0.76358,2.39523 1.69684,4.02851 0.93325,1.63335 1.91429,4.20848 2.18007,5.72257 0.26579,1.51408 0.74994,3.27324 1.0759,3.90924 0.32595,0.636 0.99579,2.51898 1.48852,4.18445 0.74371,2.51379 0.7253,3.3589 -0.10838,4.9754 -1.2431,2.41045 -2.74529,3.67206 -4.4074,3.70163 -0.69941,0.0128 -2.52508,0.6623 -4.05703,1.44415 -1.53195,0.78185 -2.87803,1.37797 -2.99129,1.32473 -0.11326,-0.0533 -0.9664,-0.2408 -1.89587,-0.41679 z m 5.59319,-8.36564 c 0.61495,-0.74126 0.72833,-2.27547 0.3764,-5.09332 -0.86728,-6.94416 -5.20982,-10.6308 -6.98385,-5.92905 -0.4425,1.17278 -1.05417,2.13232 -1.35927,2.13232 -0.3051,0 -0.55473,0.47977 -0.55473,1.06616 0,0.58639 0.31972,1.06616 0.71049,1.06616 0.39078,0 0.7105,1.25657 0.7105,2.79233 0,1.59078 0.48043,3.27289 1.11649,3.90924 1.41357,1.41409 4.83079,1.44614 5.98397,0.0561 z m 256.7485,1.58786 c -5.09729,-10.13738 -6.45249,-13.0644 -6.9082,-14.92023 -0.26394,-1.07504 -0.79347,-1.95462 -1.17686,-1.95462 -1.09082,0 -0.81614,-6.6212 0.34346,-8.27736 1.46972,-2.09913 4.51568,-1.45189 5.06574,1.07625 0.22388,1.02869 0.83042,2.82986 1.34795,4.00264 1.2175,2.75907 2.54626,6.21797 5.67129,14.76322 2.74464,7.50489 2.61973,9.76444 -0.53912,9.75242 -1.21579,-0.007 -2.08082,-1.0147 -3.80426,-4.44232 z m -100.6724,1.84211 c -0.67732,-0.6775 -0.58815,-11.60925 0.0946,-11.60925 0.31262,0 0.95903,-1.89235 1.43655,-4.20514 0.76669,-3.71328 0.72101,-4.49783 -0.3907,-6.7074 -0.7365,-1.46392 -1.97475,-2.68714 -2.984,-2.94786 -6.5273,-1.68609 -11.61194,-6.21477 -10.43188,-9.29121 0.39162,-1.02081 1.10538,-1.12301 4.88677,-0.69932 2.4355,0.27286 4.53479,0.79329 4.66502,1.15656 0.13031,0.36321 0.88435,0.66045 1.67563,0.66045 1.19711,0 1.36045,-0.31252 0.97224,-1.85987 -1.1537,-4.59855 -1.22731,-6.08784 -0.39973,-8.08666 0.73906,-1.78496 1.28394,-2.13658 3.31047,-2.13658 2.21234,0 2.55124,0.29283 3.85215,3.32889 1.14894,2.68154 1.49929,5.48062 1.80125,14.39313 0.20618,6.08535 0.34032,11.86384 0.29805,12.84115 -0.0426,0.97732 -0.15638,3.86745 -0.25358,6.4226 -0.14174,3.72615 -0.49365,4.96276 -1.77801,6.24762 -2.2578,2.25869 -5.71399,3.53424 -6.75486,2.49289 z m -22.71084,-1.39653 c -0.27425,-0.27435 -0.49862,-1.24513 -0.49862,-2.15733 0,-0.91213 -0.31972,-1.65844 -0.7105,-1.65844 -0.39077,0 -0.71049,-0.73203 -0.71049,-1.62667 0,-0.89465 -0.63944,-2.88133 -1.42098,-4.41489 -0.78155,-1.53356 -1.42099,-3.23103 -1.42099,-3.77221 0,-0.54111 -0.43525,-1.83287 -0.96727,-2.87045 -1.10161,-2.14881 -2.581,-6.18151 -3.03877,-8.28355 -0.17585,-0.80764 0.39389,-2.28477 1.31938,-3.42052 1.98711,-2.43858 3.98573,-1.98689 4.59035,1.03738 0.53245,2.66325 1.61808,3.29265 2.82691,1.63882 0.71398,-0.97681 1.87627,-1.31691 4.50083,-1.31691 2.93263,0 3.9048,0.35126 5.67933,2.05206 1.17757,1.12864 2.14107,2.44911 2.14107,2.9345 0,0.48531 0.54196,1.4246 1.20436,2.08725 1.7299,1.73052 2.17581,8.91834 0.64811,10.44664 -0.62808,0.62831 -1.14198,1.34648 -1.14198,1.59596 0,1.10176 -3.82778,5.33413 -4.82417,5.33413 -0.60676,0 -1.60792,0.44416 -2.22484,0.98705 -1.34532,1.18386 -5.25175,2.10744 -5.95173,1.40718 z m 8.04932,-12.01623 c 0.74815,-0.90175 0.61798,-1.70898 -0.74495,-4.62001 -0.9083,-1.93998 -2.02683,-3.52728 -2.48559,-3.52728 -2.29291,0 -4.48208,5.39568 -3.17811,7.83306 0.92485,1.72874 5.06667,1.93188 6.40865,0.31423 z m 126.19814,5.16511 c -0.72236,-0.48063 -2.45099,-1.99337 -3.84143,-3.3616 -2.65383,-2.61152 -4.39589,-7.59381 -4.10068,-11.72773 0.0838,-1.17277 0.20228,-2.86783 0.26331,-3.76681 0.0611,-0.89891 1.23001,-2.78714 2.59771,-4.19596 1.36769,-1.40883 2.48672,-2.77933 2.48672,-3.04559 0,-0.26625 1.92259,-0.22104 4.27241,0.10043 6.05844,0.82884 8.86468,3.44817 9.50149,8.86837 0.25492,2.17006 0.97387,4.45619 1.59769,5.08024 0.89429,0.89465 1.03618,1.96862 0.67077,5.07889 -0.25492,2.16941 -0.74836,4.22945 -1.09664,4.57787 -0.58446,0.58468 -6.28879,2.36118 -9.61702,2.99504 -0.78154,0.14891 -2.01198,-0.12253 -2.73433,-0.60315 z m 4.94432,-7.21916 c 0.214,-0.55796 0.28391,-1.66322 0.15531,-2.45615 -0.22828,-1.40761 -0.27432,-1.41095 -1.94334,-0.14265 -1.09949,0.83551 -1.55115,1.71196 -1.26567,2.45614 0.5475,1.42737 2.52544,1.51978 3.0537,0.14266 z m -4.69672,-9.79337 c 0,-2.15215 -1.74348,-1.09033 -2.01425,1.22672 -0.20909,1.78887 -0.10089,1.92313 0.88812,1.10205 0.61934,-0.51424 1.12613,-1.5622 1.12613,-2.32877 z m -255.06698,15.07248 c -0.78154,-0.78185 -1.42099,-1.92414 -1.42099,-2.53845 0,-1.29482 -1.24165,-2.66938 -3.01959,-3.3429 -1.34975,-0.51126 -1.67165,-2.29921 -0.53994,-2.99897 0.4255,-0.26305 0.0577,-1.75396 -0.93092,-3.77348 -2.20223,-4.49862 -4.30641,-13.17877 -3.74101,-15.43242 0.52092,-2.0763 3.0283,-3.32612 4.80552,-2.3953 1.17732,0.61659 3.42594,6.99229 3.42594,9.71383 0,0.77154 0.47959,1.80096 1.06574,2.28762 0.58616,0.48667 1.06574,1.48537 1.06574,2.21932 0,0.73401 0.24101,1.33454 0.53557,1.33454 0.29456,0 1.13943,3.19072 1.87749,7.09051 1.08937,5.75612 1.17277,7.29444 0.44317,8.17388 -1.18726,1.43114 -1.86205,1.36717 -3.56672,-0.33818 z m -507.05383,-2.65153 c -2.12166,-0.25723 -3.50272,-1.77552 -2.7392,-3.0114 0.19,-0.30756 1.86533,-0.94206 3.72294,-1.40996 1.85761,-0.46797 3.76737,-1.17448 4.24391,-1.57016 0.47654,-0.39563 1.15342,-0.54198 1.50417,-0.32511 0.93412,0.57757 2.26649,-2.78786 2.26649,-5.72499 0,-2.4501 -0.0784,-2.52736 -2.14503,-2.11391 -1.17976,0.23606 -2.85451,1.0904 -3.72165,1.89862 -2.20026,2.05064 -5.97312,1.65759 -7.80932,-0.81362 -1.25351,-1.68694 -1.30483,-2.24128 -0.54609,-5.89755 1.08997,-5.25239 4.49791,-8.94357 8.25733,-8.94357 3.24245,0 5.13608,1.73108 3.95799,3.61818 -1.019,1.63236 -1.07437,2.77876 -0.13419,2.77876 0.38555,0 1.97203,0.87958 3.5255,1.95463 2.41183,1.66903 2.84924,2.36998 2.99395,4.7977 0.38872,6.5214 -0.0769,8.42478 -2.72527,11.14057 -2.97066,3.04622 -6.23734,4.15702 -10.65153,3.62181 z m 2.7815,-18.23955 c 1.34869,-1.02415 1.73916,-4.26974 0.46246,-3.84399 -0.88634,0.29554 -2.97124,4.84562 -2.2044,4.81086 0.27421,-0.0121 1.05809,-0.4475 1.74194,-0.96687 z m 606.04212,14.3792 c -0.48391,-0.48411 -0.8798,-1.73841 -0.8798,-2.78743 0,-1.51302 0.40391,-1.98732 1.95385,-2.29437 2.76581,-0.54787 4.22154,1.02272 3.32397,3.58634 -0.75155,2.14674 -2.98712,2.90691 -4.39802,1.49546 z m -91.53454,-3.26976 c -5.62294,-2.86732 -8.06501,-7.33197 -8.08817,-14.78697 l -0.0156,-5.02231 4.24571,-4.44985 4.24571,-4.44979 3.65207,0.27485 c 3.27644,0.24657 3.86283,0.55761 5.70119,3.02413 2.90128,3.89267 2.80634,7.04346 -0.25998,8.6289 -1.27001,0.65669 -3.7748,2.75524 -5.56621,4.66352 -3.55143,3.78308 -3.49208,5.07796 0.26267,5.73067 1.50394,0.26142 2.17033,-0.017 2.77597,-1.16148 0.43833,-0.82804 1.62597,-2.22478 2.6392,-3.10387 4.31035,-3.73979 7.69412,-0.45781 4.95273,4.80369 -0.81277,1.55993 -1.7185,2.83626 -2.01275,2.83626 -0.29426,0 -1.34868,0.75433 -2.34316,1.67636 -2.31017,2.14183 -7.32063,2.79872 -10.18938,1.33589 z m 2.89646,-19.7962 c 1.12677,-1.72036 1.11798,-1.7335 -0.84549,-1.27008 -2.56789,0.60608 -3.33893,1.34891 -2.81581,2.71266 0.5467,1.42524 2.21299,0.7687 3.6613,-1.44258 z m -379.03555,12.10472 c -0.97693,-0.54232 -2.33575,-0.99074 -3.0196,-0.9965 -0.68385,-0.007 -1.24336,-0.3303 -1.24336,-0.72122 0,-0.39092 -0.3503,-0.71077 -0.77844,-0.71077 -0.42814,0 -1.78032,-0.71966 -3.00485,-1.59924 -1.22453,-0.87958 -2.8725,-1.92711 -3.66215,-2.32777 -1.96393,-0.99665 -2.15483,-3.34177 -0.40126,-4.92934 0.79874,-0.72315 1.45226,-2.04596 1.45226,-2.93961 0,-0.89365 0.37151,-1.85448 0.82556,-2.13523 1.26019,-0.77916 3.4374,2.41199 3.4374,5.03822 0,2.80492 0.75251,3.46246 5.20769,4.55023 3.30547,0.80707 6.87069,3.59387 6.87069,5.37051 0,1.19495 -1.53323,2.53696 -2.80644,2.45636 -0.6057,-0.0384 -1.90057,-0.51331 -2.8775,-1.05564 z m 395.27139,-7.58158 c -0.78723,-0.87958 -1.81603,-3.39799 -2.28622,-5.59654 -0.47019,-2.1985 -1.48043,-5.22467 -2.24498,-6.7249 -0.76455,-1.50023 -1.39009,-3.08312 -1.39009,-3.51754 0,-0.43449 -0.9712,-2.79568 -2.15823,-5.24713 -1.28575,-2.6553 -1.98436,-5.00518 -1.72811,-5.81284 0.59454,-1.87401 2.96567,-2.99554 5.33216,-2.52203 1.27802,0.25567 2.28818,0.0284 2.84217,-0.63926 1.04096,-1.2548 3.63623,-1.35367 4.80632,-0.1831 0.66313,0.66337 0.85259,0.51474 0.85259,-0.66883 0,-0.83694 -0.31972,-1.71943 -0.71049,-1.96102 -1.35264,-0.8363 -0.72206,-4.49719 1.16008,-6.73485 2.65289,-3.15405 4.65928,-2.70619 5.6139,1.25302 l 0.73479,3.04744 1.54859,-2.09536 c 0.85167,-1.15245 2.66492,-2.46389 4.02935,-2.91438 2.17638,-0.71858 2.73114,-0.63401 4.52002,0.6891 2.9474,2.17994 8.68151,14.70906 8.68151,18.96907 0,3.14324 -3.91745,4.14202 -6.28303,1.60194 -0.75064,-0.80609 -1.56557,-2.72148 -1.81098,-4.25631 -0.67639,-4.23173 -3.78543,-9.86054 -5.47051,-9.90419 -0.78644,-0.0206 -2.06633,5.47259 -2.06633,8.8683 0,2.35501 0.64954,4.66224 2.13695,7.59041 2.43181,4.7874 2.29319,7.08859 -0.53876,8.94492 -1.72714,1.13204 -1.84025,1.09892 -3.82046,-1.11819 -1.28117,-1.4344 -2.04068,-3.0743 -2.04068,-4.40593 0,-1.16659 -0.25656,-2.12109 -0.57017,-2.12109 -0.31361,0 -0.92798,-1.51927 -1.36522,-3.37617 -2.04439,-8.68185 -2.48652,-10.12849 -3.0956,-10.12849 -0.35912,0 -0.65296,0.43073 -0.65296,0.95713 0,0.52639 -1.15297,2.14475 -2.56216,3.59636 l -2.56217,2.63916 1.57944,5.11067 c 0.86869,2.81082 1.90802,6.23005 2.30962,7.59829 0.40161,1.36823 1.22468,3.50566 1.82905,4.74987 2.16757,4.4623 -1.45688,7.84593 -4.61939,4.31247 z M 281.027,338.54753 c -2.11715,-2.16636 -2.57319,-3.4601 -2.33261,-6.61742 0.26451,-3.47141 0.90974,-4.50089 3.45847,-5.51787 2.35378,-0.93913 2.97115,-0.93323 5.63364,0.054 4.92938,1.82767 7.43751,7.84641 4.6859,11.24461 -3.12053,3.85388 -8.13823,4.22071 -11.4454,0.83672 z m 7.72142,-3.97705 c -0.0502,-2.62715 -1.00252,-3.70653 -3.27039,-3.70653 -2.07557,0 -2.40386,0.23718 -2.40386,1.73663 0,2.27546 2.57059,4.14487 4.37281,3.17999 0.72112,-0.38609 1.30678,-0.93061 1.30144,-1.21009 z m 427.2906,-17.71811 c -1.87009,-0.23626 -2.52274,-0.8938 -4.22217,-4.2539 -3.24234,-6.41102 -2.92382,-12.39045 0.88428,-16.6012 0.90325,-0.99871 1.64223,-2.2061 1.64223,-2.68303 0,-1.08293 2.97363,-2.2535 5.7248,-2.2535 2.20288,0 5.64309,2.46134 5.64309,4.03739 0,0.51589 0.39965,0.94804 0.88811,0.96033 1.85062,0.0462 3.46486,3.54433 3.75382,8.13386 0.4383,6.96272 -1.5044,10.51217 -6.75622,12.34368 -2.34079,0.81632 -3.2866,0.85592 -7.55794,0.31637 z m 7.51759,-6.9419 c 1.24876,-0.77203 0.82125,-6.25883 -0.67952,-8.72124 -1.04634,-1.71672 -1.91236,-2.30723 -3.37221,-2.29913 -3.0932,0.0171 -3.8091,0.88449 -3.89649,4.72095 -0.11147,4.89863 2.21404,8.18773 5.18625,7.33495 1.11561,-0.32007 2.35848,-0.78604 2.76197,-1.03553 z m -438.70621,3.34276 c -1.56308,-0.63315 -3.00183,-1.34456 -3.19721,-1.5809 -0.19539,-0.23633 -1.56269,-1.16374 -3.03844,-2.06094 -5.00554,-3.04332 -6.41994,-5.75676 -3.00075,-5.75676 1.33263,0 1.77623,-0.37401 1.77623,-1.4976 0,-1.07354 0.31819,-1.37541 1.12385,-1.06616 0.61811,0.23734 1.24753,0.43144 1.39868,0.43144 0.15117,0 0.1004,0.45476 -0.11282,1.01065 -0.76064,1.98292 1.04264,3.86233 4.1642,4.3399 4.02233,0.61539 8.29956,4.09632 7.1965,5.85683 -1.02097,1.62945 -2.8545,1.72341 -6.31024,0.32354 z m 468.42641,-6.35053 c -2.25816,-0.34443 -2.74606,-1.54145 -2.87181,-7.04488 -0.0533,-2.32927 -0.63838,-5.11414 -1.38042,-6.57031 -0.7139,-1.40071 -1.28805,-4.04798 -1.28805,-5.93863 0,-2.01597 -0.62915,-4.7503 -1.53801,-6.6846 l -1.538,-3.27317 -1.02467,2.57015 c -0.75675,1.89797 -1.44692,2.57023 -2.63878,2.57023 -3.23771,0 -3.97726,6.92262 -1.69324,15.84963 0.87227,3.40936 0.35809,5.03959 -1.91656,6.07638 -2.64424,1.20534 -2.83493,1.09694 -3.87488,-2.20211 -0.52371,-1.66142 -1.17139,-3.34062 -1.43932,-3.73154 -0.268,-0.39094 -0.65706,-1.51039 -0.86474,-2.48771 -0.20761,-0.97731 -1.06396,-3.64832 -1.90298,-5.93558 -1.90334,-5.1887 -1.14013,-8.68151 2.14746,-9.82798 1.26319,-0.44054 2.65461,-1.83394 3.66295,-3.66808 1.29523,-2.35606 2.0757,-3.00158 3.83701,-3.17374 1.35932,-0.13284 2.66805,0.24102 3.3973,0.97056 1.10787,1.10838 1.17487,0.85719 1.01465,-3.80675 -0.19759,-5.7522 0.68207,-7.49388 3.43566,-6.80251 1.26759,0.31828 2.01368,0.0512 2.7344,-0.97796 0.57486,-0.82108 2.19621,-1.60847 3.86011,-1.87458 2.34548,-0.37522 3.39211,-0.12851 5.73723,1.35246 1.57765,0.99636 3.12965,2.5194 3.44888,3.38469 2.01673,5.46598 2.91785,9.3212 2.91785,12.48314 0,3.00109 -0.36107,4.02283 -2.13645,6.04568 -1.34056,1.52738 -3.06109,2.60783 -4.61821,2.90002 -2.19187,0.41139 -2.48175,0.7193 -2.48175,2.63618 0,1.19367 0.46836,3.17822 1.0408,4.41012 1.94888,4.19392 2.51486,8.34568 1.42511,10.45389 -0.80222,1.5519 -2.86613,3.18284 -3.41214,2.69631 -0.0654,-0.0583 -0.98347,-0.23831 -2.0394,-0.39931 z m 4.71113,-26.1989 c 1.30987,-1.31044 1.46632,-5.33263 0.29557,-7.59971 -0.45152,-0.87424 -1.04329,-2.06934 -1.31505,-2.65572 -0.27177,-0.58639 -1.3228,-1.1656 -2.33568,-1.28715 -3.98608,-0.47834 -5.03377,7.07382 -1.50923,10.87837 1.90349,2.05469 3.28575,2.24348 4.86439,0.66421 z m -471.56202,18.92657 c -1.36048,-1.19495 -2.7945,-2.17268 -3.18671,-2.17268 -1.27925,0 -9.38631,-4.91357 -9.38177,-5.68618 0.001,-0.19546 0.29254,-0.81461 0.64755,-1.37584 0.53255,-0.84191 0.83979,-0.85911 1.7563,-0.0981 1.83542,1.52383 3.44873,0.39598 2.91445,-2.03757 -0.58112,-2.64691 0.51381,-4.72734 2.78857,-5.29852 2.10405,-0.52824 10.7447,2.7067 11.33416,4.24339 0.72846,1.8991 -0.36229,3.14516 -2.75314,3.14516 -1.27804,0 -2.72173,-0.47978 -3.2082,-1.06616 -1.4065,-1.6954 -3.55247,-1.3435 -3.55247,0.58262 0,1.5991 2.83492,4.74816 4.27452,4.74816 1.50791,0 5.01982,3.86419 4.81474,5.29774 -0.34344,2.4007 -3.55364,2.26033 -6.448,-0.28196 z m -3.86324,-22.31155 c -1.14382,-1.30327 -2.48567,-3.82018 -2.98188,-5.5932 -0.777,-2.7762 -0.74257,-3.5324 0.24809,-5.44892 0.9899,-1.91503 1.53592,-2.22528 3.91591,-2.22528 4.60473,0 5.01143,0.39412 5.0295,4.87376 l 0.0162,4.01088 1.17183,-2.37923 c 1.44963,-2.9433 2.8182,-3.53787 4.13605,-1.79683 1.92103,2.53781 0.53662,9.50685 -1.88856,9.50685 -0.67998,0 -1.43393,0.31985 -1.67544,0.71077 -0.24151,0.39093 -1.66601,0.71077 -3.16554,0.71077 -2.2005,0 -3.12763,-0.45709 -4.80613,-2.36957 z m 490.67351,-4.56379 c -2.43586,-0.18153 -3.74437,-0.73615 -5.10539,-2.16388 -3.91397,-4.1057 -5.43186,-11.31512 -3.69648,-17.55669 0.62758,-2.25713 4.16533,-6.04156 5.64778,-6.04156 0.48427,0 1.45914,-0.63969 2.16643,-1.42155 3.35331,-3.70688 10.01461,-0.31017 10.79416,5.50408 0.32633,2.43411 0.1,3.08546 -1.65559,4.76359 -1.11853,1.06915 -2.83294,2.23979 -3.80987,2.60136 -1.78085,0.6591 -4.97345,4.62001 -4.97345,6.17035 0,1.57137 4.56705,0.0178 7.13491,-2.42757 3.12603,-2.97657 4.04768,-3.00053 5.25154,-0.13626 1.17671,2.79973 0.33073,5.72122 -2.50968,8.66701 -2.04941,2.12549 -3.57939,2.46332 -9.24436,2.04112 z m -0.69913,-17.15775 c 1.09778,-0.84425 1.55065,-1.72887 1.26567,-2.47185 -0.58836,-1.53384 -2.36167,-1.47911 -2.8117,0.0867 -0.19667,0.68412 -0.58786,1.80359 -0.86936,2.4877 -0.6577,1.5981 0.25457,1.55937 2.41539,-0.10257 z m -484.60785,0.10257 c -0.34913,-0.78582 -8.13031,-4.44232 -9.45351,-4.44232 -2.47537,0 -4.63794,-2.20922 -4.63794,-4.73801 0,-2.15953 0.30841,-2.56517 2.66435,-3.50403 7.22678,-2.87983 7.4088,-3.58414 1.77712,-6.87615 -6.2702,-3.6653 -5.63203,-7.22982 0.74174,-4.14308 1.69447,0.82058 3.45949,1.49198 3.92227,1.49198 0.46279,0 0.84142,0.31985 0.84142,0.71077 0,0.39093 0.63945,0.71077 1.42099,0.71077 0.78155,0 1.42099,0.31985 1.42099,0.71077 0,0.39093 0.59632,0.71078 1.32517,0.71078 2.28344,0 5.06926,2.73952 5.06926,4.98506 0,2.37135 -0.4601,2.73548 -4.88229,3.86404 -3.75543,0.95841 -4.55327,2.56389 -1.89365,3.81059 0.99137,0.46478 2.61042,1.22345 3.5979,1.68609 1.82713,0.85606 2.97815,3.44356 2.13727,4.80468 -0.52864,0.85562 -3.69217,1.02592 -4.05109,0.21806 z m -3.94257,-25.12101 c -4.25438,-2.72603 -6.72603,-8.6518 -4.82151,-11.55964 1.45924,-2.22798 6.1233,-4.70231 6.55568,-3.47794 0.17256,0.48865 1.06862,0.88846 1.99123,0.88846 1.99892,0 6.39485,3.95346 6.93443,6.23645 0.59054,2.49858 -0.76804,6.33867 -2.81142,7.94665 -2.34079,1.84196 -4.93813,1.83072 -7.84841,-0.0341 z m 5.12582,-5.61844 c 0.53628,-0.86799 -1.79577,-4.98058 -2.81663,-4.96716 -2.6117,0.0348 -3.93215,0.97404 -3.93215,2.79789 0,1.06197 0.21315,2.14418 0.47366,2.40475 0.74303,0.74332 5.78738,0.55405 6.27512,-0.23548 z m -0.35434,-12.41988 c -2.02501,-1.16872 -4.22375,-2.21469 -6.64512,-3.16116 -1.3785,-0.53883 -1.75216,-1.33844 -2.13059,-4.55953 -0.2524,-2.14837 -0.62296,-4.33382 -0.82347,-4.85652 -0.2005,-0.5227 0.30529,-1.36888 1.12399,-1.88035 1.24853,-0.78007 1.75852,-0.75305 3.16286,0.16747 1.36429,0.89429 1.60433,1.52894 1.29636,3.4274 -0.46615,2.87369 1.04175,4.44272 5.50895,5.73234 3.33636,0.96317 4.45881,3.07458 2.73752,5.1494 -1.06568,1.28458 -1.97889,1.28046 -4.2305,-0.0192 z m -1.42099,-15.11289 c -0.58615,-0.22546 -2.02491,-1.11697 -3.19722,-1.98127 -1.17231,-0.8643 -3.73009,-2.15748 -5.68394,-2.87372 -1.95386,-0.71625 -3.78736,-1.63854 -4.07446,-2.04958 -0.99457,-1.42375 -0.53717,-3.93775 0.87724,-4.82145 0.78154,-0.48824 1.42099,-1.29062 1.42099,-1.78297 0,-1.36753 2.83377,-1.06552 3.27203,0.3487 1.03659,3.34496 2.4503,4.83581 5.38435,5.67814 5.86367,1.68347 7.65529,2.99348 7.67408,5.61133 0.014,1.95264 -2.93307,2.92455 -5.67307,1.87082 z m 0.71049,-14.04876 c -0.48646,-0.58638 -1.25731,-1.06615 -1.71299,-1.06615 -0.45569,0 -2.08275,-0.63969 -3.6157,-1.42154 -1.53296,-0.78185 -3.13935,-1.42155 -3.56977,-1.42155 -0.43042,0 -1.68324,-0.94042 -2.78404,-2.08988 -2.40247,-2.50859 -2.03319,-4.30706 0.8844,-4.30706 2.69625,0 3.00612,-0.43137 2.12536,-2.95895 -0.53054,-1.52246 -0.50957,-2.63603 0.0737,-3.91677 0.7832,-1.71957 0.98785,-1.77025 5.23989,-1.29808 6.94058,0.77069 10.40982,3.32896 9.4894,6.99761 -0.38399,1.53058 -0.88624,1.88696 -2.65929,1.88696 -1.20224,0 -3.09203,-0.64552 -4.19954,-1.43441 -1.10751,-0.78895 -2.19735,-1.13709 -2.42185,-0.77367 -0.81233,1.31485 2.14796,5.02842 5.27795,6.6209 3.90874,1.98874 4.69477,4.42939 1.78318,5.53684 -2.47265,0.94043 -2.86622,0.90482 -3.91073,-0.35425 z"/>
</svg>
